<?xml version="1.0" encoding="utf-8"?>
<!-- Generator: Adobe Illustrator 25.2.1, SVG Export Plug-In . SVG Version: 6.00 Build 0)  -->
<svg version="1.1" id="Layer_1" xmlns="http://www.w3.org/2000/svg" xmlns:xlink="http://www.w3.org/1999/xlink" x="0px" y="0px"
	 viewBox="0 0 512 512" style="enable-background:new 0 0 512 512;" xml:space="preserve">
<style type="text/css">
	.st0{fill:#D4E1F4;}
	.st1{fill:#1C2226;}
	.st2{fill:#E20613;}
</style>
<path id="XMLID_1_" class="st0" d="M96.1,259.8c0-99.8,77-181.7,174.9-189.3c-4.9-0.4-10-0.6-15-0.6c-104.9,0-189.9,85-189.9,189.9
	s85,189.9,189.9,189.9c5,0,10.1-0.2,15-0.6C173.1,441.5,96.1,359.7,96.1,259.8z"/>
<g>
	<path class="st1" d="M64.4,157.8c1,0.6,2,0.8,3,0.8c2.1,0,4.1-1.1,5.2-3C91,124.5,117.3,98.3,148.5,80c2.9-1.7,3.8-5.4,2.1-8.2
		c-1.7-2.9-5.4-3.8-8.2-2.1c-33,19.3-60.7,47-80.1,79.9C60.6,152.4,61.6,156.1,64.4,157.8z"/>
	<path class="st1" d="M164.9,70.7c0.8,0,1.7-0.2,2.5-0.5c1.7-0.8,3.5-1.6,5.3-2.3c3-1.3,4.5-4.8,3.2-7.9c-1.3-3-4.8-4.5-7.9-3.2
		c-1.9,0.8-3.8,1.6-5.6,2.5c-3,1.4-4.3,4.9-3,8C160.5,69.4,162.7,70.7,164.9,70.7z"/>
	<path class="st1" d="M256,63.9c-108,0-195.9,87.9-195.9,195.9S148,455.7,256,455.7s195.9-87.9,195.9-195.9S364,63.9,256,63.9z
		 M224.5,78.6c-28.5,20-50.5,48.6-64.7,83.2c-13.3-8.1-25.6-17.9-36.5-29.2C149.9,104.9,185,85.5,224.5,78.6z M115.2,141.7
		c12,12.4,25.5,22.9,40.2,31.6c-8.5,24.5-13.2,51.7-13.8,80.7H72.2C73.6,211,89.5,172.3,115.2,141.7z M115.2,378.1
		C89.5,347.6,73.6,308,72.2,266h69.5c0.6,29,5.3,56.1,13.8,80.5C140.7,355.3,127.2,365.9,115.2,378.1z M123.3,387
		c10.8-11.3,23.1-21.1,36.5-29.2C174,392.4,196,421,224.5,441C185,434.2,149.9,414.7,123.3,387L123.3,387z M250,319.1
		c-8.1,0.2-16.2,1-24.2,2.2l1.8,11.9c7.4-1.1,14.9-1.8,22.4-2v111.3c-36.1-18.5-63.5-50.2-79.7-90.6c9.1-4.7,18.6-8.7,28.5-11.9
		l-3.7-11.4c-10,3.2-19.7,7.3-29,12.1c-7.6-22.7-11.9-47.6-12.5-74.6H250V319.1z M250,254h-96.3c0.6-27,4.8-52.1,12.5-74.8
		c25.7,13.1,54.3,20.4,83.8,21.3V254z M250,188.5c-28.1-0.9-55.3-8.1-79.7-20.7c16.2-40.4,43.5-72.1,79.7-90.5V188.5z M396.3,141.2
		c26,30.6,42.1,69.8,43.5,112.8h-69.5c-0.6-29-5.4-56.4-13.9-81C371,164.2,384.4,153.6,396.3,141.2z M388.2,132.1
		c-10.8,11.4-22.9,21.2-36.1,29.4c-14.2-34.5-36.1-63-64.5-82.9C326.7,85.4,361.7,104.7,388.2,132.1L388.2,132.1z M262,77.2
		c36,18.5,63.4,50.1,79.6,90.3c-3.2,1.7-6.4,3.3-9.7,4.8c-22,10-45.5,15.4-69.8,16.2V77.2L262,77.2z M262,200.5
		c26.1-0.8,51.3-6.6,74.8-17.3c3-1.4,6-2.7,9-4.3c7.7,22.8,12,48,12.6,75H262V200.5z M262,266h96.3c-0.6,27-4.9,52.1-12.6,74.8
		c-2.9-1.5-5.9-3.1-8.9-4.4c-23.6-10.7-48.7-16.5-74.8-17.3V266z M262,331.2c24.4,0.8,47.9,6.2,69.8,16.2c3.3,1.5,6.5,3.1,9.7,4.8
		C325.4,392.4,298,424,262,442.4V331.2z M287.5,441c28.4-19.9,50.4-48.4,64.5-82.9c13.2,8.2,25.3,18,36.1,29.4
		C361.7,415,326.7,434.2,287.5,441z M396.3,378.7c-11.9-12.4-25.3-23.1-39.9-31.9c8.5-24.5,13.3-51.8,13.9-80.8h69.5
		C438.4,309,422.3,348.1,396.3,378.7z"/>
</g>
<g>
	<path id="XMLID_6_" class="st2" d="M451.6,249c0.2,3.6,0.3,7.2,0.3,10.9v1.7C483.6,271,495,281,495,287.3
		c0,12.3-42.2,35.1-155.5,44c-3.3,0.3-5.8,3.2-5.5,6.5c0.2,3.1,2.9,5.5,6,5.5h0.5c47.2-3.7,87.6-10.5,117-19.4
		c32.9-10,49.5-22.3,49.5-36.6C507,272.2,488.4,259.3,451.6,249L451.6,249z"/>
	<path id="XMLID_12_" class="st2" d="M60.4,249C23.6,259.3,5,272.2,5,287.3c0,15.3,19.2,28.4,57.2,38.8c32.8,9,78.8,15.6,128.8,18.6
		v24.9c0,2.2,1.2,4.2,3.1,5.2c0.9,0.5,1.9,0.8,2.9,0.8c1.1,0,2.2-0.3,3.2-0.9l48.9-30.4c1.8-1.1,2.8-3,2.8-5.1s-1.1-4-2.8-5.1
		l-48.9-30.4c-1.9-1.2-4.2-1.2-6.1-0.1s-3.1,3.1-3.1,5.2v23.8c-49-3-93.8-9.4-125.7-18.1C29.7,304.7,17,294,17,287.3
		c0-6.4,11.4-16.3,43.1-25.7c0-0.6,0-1.1,0-1.7C60.1,256.2,60.2,252.6,60.4,249L60.4,249z M203,319.6l31.5,19.6L203,358.7V319.6z"/>
</g>
</svg>
