<?xml version="1.0" encoding="utf-8"?>
<!-- Generator: Adobe Illustrator 25.2.1, SVG Export Plug-In . SVG Version: 6.00 Build 0)  -->
<svg version="1.1" id="Layer_1" xmlns="http://www.w3.org/2000/svg" xmlns:xlink="http://www.w3.org/1999/xlink" x="0px" y="0px"
	 viewBox="0 0 512 512" style="enable-background:new 0 0 512 512;" xml:space="preserve">
<style type="text/css">
	.st0{fill:#D4E1F4;}
	.st1{fill:#1C2226;}
	.st2{fill:#E20613;}
</style>
<path class="st0" d="M105.86,246.63l176.63-138.4c-3.4-5.12-6.98-10.15-10.76-15.07L63.8,256.08l207.93,162.81
	c3.78-4.92,7.36-9.94,10.75-15.07L105.86,265.52c-5.22-4.09-6.14-11.63-2.05-16.85C104.41,247.91,105.1,247.23,105.86,246.63z"/>
<path class="st0" d="M308.28,157.67c-0.62-1.56-1.26-3.12-1.91-4.67h-0.01c-51.88,0-93.94,45.94-93.94,103s42.06,103,93.94,103h0.01
	c0.66-1.55,1.29-3.11,1.91-4.67c-38.17-13.05-65.86-52.03-65.86-98.33S270.12,170.72,308.28,157.67L308.28,157.67z"/>
<path class="st1" d="M280.06,94.1l0.9-0.71c9.33-7.48,10.83-21.11,3.35-30.45c-7.37-9.19-20.72-10.81-30.07-3.65L30.3,234.85
	c-11.68,9.16-13.73,26.05-4.57,37.73c1.33,1.7,2.87,3.24,4.57,4.57L254.24,452.7c9.44,7.34,23.05,5.64,30.39-3.8
	c7.3-9.39,5.66-22.91-3.67-30.29l-0.9-0.71C350.78,321.55,350.78,190.45,280.06,94.1z M319.29,286.71
	c-13.05-2.89-22.24-15.56-22.24-30.71s9.19-27.82,22.24-30.71C321.7,245.69,321.7,266.31,319.29,286.71L319.29,286.71z M285.05,256
	c0,21.15,14.07,38.81,32.57,42.58c-3.07,18.71-8.18,37.04-15.22,54.65c-46.38-2.12-84.35-44.91-84.35-97.22s37.96-95.1,84.34-97.22
	c7.04,17.61,12.15,35.93,15.23,54.65C299.13,217.19,285.05,234.85,285.05,256z M275.2,441.61c-3.29,4.19-9.36,4.93-13.56,1.64
	L37.7,267.71c-6.47-5.07-7.6-14.42-2.53-20.89c0.74-0.94,1.59-1.79,2.53-2.53L261.64,68.74c4.24-3.23,10.3-2.41,13.53,1.84
	c3.17,4.16,2.45,10.08-1.62,13.36L60.1,251.28c-2.61,2.04-3.06,5.82-1.02,8.42c0.3,0.38,0.64,0.72,1.02,1.02l213.46,167.33
	C277.75,431.35,278.48,437.42,275.2,441.61L275.2,441.61z M73.52,256l197.09-154.49c10.45,14.25,19.43,29.53,26.78,45.59
	c-51,4.8-91.34,51.8-91.34,108.9s40.33,104.1,91.34,108.9c-7.36,16.07-16.33,31.34-26.78,45.59L73.52,256z"/>
<path class="st1" d="M223.91,170.6c1.64,0,3.21-0.67,4.35-1.86c1.13-1.18,2.3-2.36,3.48-3.5c2.39-2.3,2.45-6.1,0.15-8.49
	s-6.1-2.45-8.49-0.15c-1.3,1.26-2.59,2.55-3.84,3.86c-2.29,2.4-2.19,6.2,0.2,8.48C220.89,170,222.37,170.6,223.91,170.6
	L223.91,170.6z"/>
<path class="st1" d="M194.05,256c-0.11-24.95,7.09-49.38,20.73-70.27c1.82-2.77,1.05-6.49-1.72-8.31c-2.77-1.82-6.49-1.05-8.31,1.72
	c-14.92,22.85-22.81,49.57-22.7,76.86c0,3.71,0.14,7.46,0.43,11.14c0.24,3.12,2.84,5.53,5.98,5.54c0.15,0,0.31-0.01,0.47-0.02
	c3.3-0.26,5.78-3.14,5.52-6.44c0,0,0,0,0,0C194.19,262.84,194.05,259.4,194.05,256L194.05,256z"/>
<g>
	<path class="st2" d="M431.76,256c0-3.31-2.69-6-6-6h-55.78c-3.31,0-6,2.69-6,6c0,3.31,2.69,6,6,6h55.78
		C429.08,262,431.76,259.31,431.76,256z"/>
	<path class="st2" d="M406.3,129.27c-1.38-3.01-4.94-4.33-7.95-2.95l-51.02,23.42c-3.01,1.38-4.33,4.94-2.95,7.96
		c1.38,3.01,4.94,4.33,7.96,2.95l0,0l51.02-23.42C406.36,135.84,407.68,132.28,406.3,129.27L406.3,129.27z"/>
	<path class="st2" d="M343.12,354.3c-1.38,3.01-0.06,6.57,2.95,7.96h0l51.02,23.42c3.01,1.38,6.57,0.06,7.96-2.95
		c1.38-3.01,0.06-6.57-2.95-7.96l-51.02-23.42C348.07,349.97,344.51,351.29,343.12,354.3L343.12,354.3L343.12,354.3z"/>
	<path class="st2" d="M489.4,176.96l-29.23-20.12c-2.73-1.88-6.47-1.19-8.35,1.54c-1.88,2.73-1.19,6.47,1.54,8.34l17.3,11.91
		l-61.2,11.3c-3.26,0.57-5.45,3.67-4.89,6.94c0.57,3.26,3.67,5.45,6.94,4.89c0.04-0.01,0.08-0.01,0.13-0.02l61.2-11.3l-11.91,17.3
		c-1.94,2.69-1.33,6.44,1.36,8.38s6.44,1.33,8.38-1.36c0.05-0.07,0.1-0.14,0.15-0.21l20.12-29.23
		C492.82,182.57,492.13,178.84,489.4,176.96L489.4,176.96z"/>
	<path class="st2" d="M360.22,211.12c0.37,0,0.74-0.03,1.1-0.1l0.71-0.13c3.25-0.63,5.38-3.78,4.75-7.03
		c-0.62-3.21-3.7-5.33-6.93-4.77l-0.71,0.13c-3.26,0.6-5.41,3.73-4.81,6.99C354.86,209.05,357.33,211.12,360.22,211.12
		L360.22,211.12z"/>
	<path class="st2" d="M388.82,205.84c0.37,0,0.74-0.03,1.1-0.1l0.33-0.06c3.25-0.64,5.37-3.79,4.73-7.05
		c-0.63-3.2-3.69-5.31-6.9-4.75l-0.33,0.06c-3.26,0.6-5.41,3.73-4.81,6.99C383.46,203.77,385.94,205.84,388.82,205.84L388.82,205.84
		z"/>
	<path class="st2" d="M317.15,98.29l-0.6,0.41c-2.74,1.86-3.46,5.59-1.61,8.33c1.86,2.74,5.59,3.46,8.33,1.61l0.6-0.41
		c2.74-1.86,3.46-5.59,1.61-8.33C323.63,97.16,319.9,96.44,317.15,98.29z"/>
	<path class="st2" d="M344.01,93.38c1.2,0,2.36-0.36,3.36-1.03l0.28-0.19c2.77-1.82,3.53-5.55,1.7-8.31
		c-1.82-2.77-5.55-3.53-8.31-1.7c-0.04,0.02-0.07,0.05-0.11,0.08l-0.28,0.19c-2.75,1.86-3.47,5.59-1.61,8.33
		C340.15,92.39,342.02,93.38,344.01,93.38z"/>
	<path class="st2" d="M362.31,81c1.2,0,2.37-0.36,3.36-1.03l51.55-34.87l-3.98,20.62c-0.63,3.25,1.5,6.4,4.75,7.03
		s6.4-1.5,7.03-4.75l6.73-34.85c0.63-3.25-1.5-6.4-4.75-7.03l-34.84-6.73c-3.25-0.63-6.4,1.5-7.03,4.75
		c-0.63,3.25,1.5,6.4,4.75,7.03l20.62,3.98l-51.56,34.87c-2.75,1.85-3.47,5.58-1.61,8.33C358.45,80.01,360.31,81,362.31,81
		L362.31,81z"/>
	<path class="st2" d="M470.82,297.46c-1.82-2.77-5.54-3.54-8.31-1.72s-3.54,5.54-1.72,8.31c0.05,0.07,0.1,0.14,0.15,0.21l11.91,17.3
		l-61.2-11.3c-3.26-0.57-6.37,1.62-6.94,4.89c-0.56,3.22,1.56,6.29,4.76,6.91l61.2,11.3l-17.3,11.91c-2.73,1.88-3.42,5.62-1.54,8.35
		s5.62,3.42,8.35,1.54l29.23-20.12c2.73-1.88,3.42-5.61,1.54-8.34c0,0,0,0,0,0L470.82,297.46z"/>
	<path class="st2" d="M359.14,312.78l0.71,0.13c3.26,0.57,6.37-1.61,6.95-4.88c0.56-3.22-1.56-6.3-4.77-6.92l-0.71-0.13
		c-3.26-0.57-6.37,1.61-6.95,4.88C353.81,309.08,355.93,312.16,359.14,312.78z"/>
	<path class="st2" d="M388.07,318.12c0.36,0.07,0.73,0.1,1.1,0.1c3.31,0,6-2.7,5.99-6.01c0-2.89-2.07-5.37-4.91-5.89l-0.33-0.06
		c-3.25-0.64-6.41,1.48-7.05,4.73c-0.64,3.25,1.48,6.41,4.73,7.05c0.05,0.01,0.09,0.02,0.14,0.03L388.07,318.12z"/>
	<path class="st2" d="M425.02,444c-0.65-3.25-3.82-5.35-7.07-4.7c-3.21,0.65-5.31,3.75-4.72,6.97l3.98,20.62l-51.55-34.87
		c-2.74-1.86-6.48-1.14-8.33,1.61c-1.86,2.74-1.14,6.47,1.61,8.33l0,0l51.56,34.87l-20.62,3.98c-3.25,0.63-5.38,3.77-4.75,7.03
		c0.63,3.25,3.77,5.38,7.03,4.75l0,0l34.84-6.73c3.25-0.63,5.38-3.77,4.75-7.03L425.02,444z"/>
	<path class="st2" d="M323.88,403.77l-0.6-0.41c-2.74-1.86-6.47-1.14-8.33,1.61s-1.14,6.47,1.61,8.33l0.6,0.41
		c2.74,1.86,6.47,1.14,8.33-1.61S326.62,405.63,323.88,403.77L323.88,403.77z"/>
	<path class="st2" d="M347.65,419.84l-0.28-0.19c-2.72-1.89-6.46-1.21-8.35,1.52c-1.89,2.72-1.21,6.46,1.52,8.35
		c0.04,0.03,0.07,0.05,0.11,0.07l0.28,0.19c2.72,1.89,6.46,1.21,8.35-1.52c1.89-2.72,1.21-6.46-1.52-8.35
		C347.72,419.89,347.68,419.87,347.65,419.84z"/>
</g>
</svg>
