<?xml version="1.0" encoding="utf-8"?>
<!-- Generator: Adobe Illustrator 25.2.1, SVG Export Plug-In . SVG Version: 6.00 Build 0)  -->
<svg version="1.1" id="Layer_1" xmlns="http://www.w3.org/2000/svg" xmlns:xlink="http://www.w3.org/1999/xlink" x="0px" y="0px"
	 viewBox="0 0 512 512" style="enable-background:new 0 0 512 512;" xml:space="preserve">
<style type="text/css">
	.st0{fill:#D4E1F4;}
	.st1{fill:#E20613;}
	.st2{fill:#1C2226;}
</style>
<path class="st0" d="M224.76,11.11C103.09,15.5,28.63,146.99,84.99,254.91c0,0,19.24,47.69,21.11,67.76
	c6.33,68.08,0,178.34,0,178.34h30c0,0,6.33-110.26,0-178.34c-1.87-20.07-21.11-67.76-21.11-67.76
	C59.9,149.43,129.8,21.45,246.59,11.63c-5.67-0.47-11.4-0.68-17.2-0.63C227.84,11.02,226.3,11.06,224.76,11.11z"/>
<g>
	<path class="st1" d="M187,501V287.59c0.04-11.28-9.03-20.47-20.31-20.59h-9.23c-3.23-13.49-16.79-21.81-30.29-18.58
		c-13.49,3.23-21.81,16.79-18.58,30.29c3.23,13.49,16.79,21.81,30.29,18.58c9.09-2.18,16.22-9.22,18.51-18.29h9.3
		c4.65,0.11,8.36,3.93,8.31,8.59V501H187z M133.1,286.1c-7.21,0-13.06-5.85-13.06-13.06s5.85-13.06,13.06-13.06
		c7.21,0,13.06,5.85,13.06,13.06c0,0,0,0,0,0C146.15,280.26,140.31,286.1,133.1,286.1z"/>
	<path class="st1" d="M247.9,89h8.95c4.62,0.12,8.27,3.96,8.15,8.58v37.16c-11,2.09-20.55,12.35-20.55,24.66
		c-0.01,13.83,11.19,25.05,25.03,25.06c13.83,0.01,25.05-11.19,25.06-25.03c0.01-10.95-7.1-20.63-17.54-23.91V97.58
		c0.11-11.25-8.91-20.46-20.16-20.58h-8.94c-4.32,0.05-7.86-3.42-7.91-7.74c0-0.15,0-0.3,0.01-0.45V12h-12v56.81
		c-0.2,10.95,8.52,19.99,19.47,20.18C247.61,89,247.76,89,247.9,89z M282.68,159.41c0,7.21-5.85,13.06-13.06,13.06
		c-7.21,0-13.06-5.85-13.06-13.06s5.85-13.06,13.06-13.06C276.83,146.36,282.68,152.2,282.68,159.41L282.68,159.41z"/>
	<path class="st1" d="M350,259.11v26c0,4.62-3.67,7.89-8.29,7.89h-49.4c-2.65-10-12.56-18.95-24.36-18.95
		c-13.86,0.07-25.05,11.33-25.06,25.18c0.09,13.82,11.37,24.96,25.2,24.87c11.48-0.08,21.43-7.95,24.15-19.1h49.46
		c11.24,0,20.29-8.65,20.29-19.89v-26c0.07-4.55,3.82-8.19,8.37-8.11c0.03,0,0.07,0,0.1,0H422v-12h-51.52
		c-11.19-0.12-20.35,8.84-20.48,20.03C350,259.06,350,259.08,350,259.11L350,259.11z M267.95,312.42c-7.21,0-13.06-5.85-13.06-13.06
		c0-7.21,5.85-13.06,13.06-13.06s13.06,5.85,13.06,13.06C281,306.57,275.16,312.41,267.95,312.42z"/>
	<path class="st1" d="M206,501h12V236.98c-0.08-4.11,2.89-7.65,6.95-8.28c1.67,13.69,14.12,23.44,27.82,21.77
		s23.44-14.12,21.77-27.82c-1.53-12.57-12.23-22-24.9-21.95c-10.49-0.15-19.91,6.41-23.42,16.3H226c-10.9-0.14-19.86,8.58-20,19.48
		c0,0.17,0,0.34,0,0.5V501z M249.61,212.5c7.21,0,13.06,5.85,13.06,13.06s-5.85,13.06-13.06,13.06c-7.21,0-13.06-5.85-13.06-13.06
		c0,0,0,0,0,0C236.57,218.35,242.41,212.51,249.61,212.5z"/>
	<path class="st1" d="M95,200.08v4.12c0,11.24,9.09,20.8,20.33,20.8h21.56c4.03,13.26,18.04,20.75,31.3,16.72
		c10.6-3.22,17.83-13,17.8-24.08c-0.08-13.83-11.36-24.98-25.19-24.89c-11.93,0.07-22.15,8.54-24.43,20.25h-21.04
		c-4.62,0-8.33-4.18-8.33-8.8v-4.12c-0.06-11.16-9.16-20.15-20.31-20.09c-0.04,0-0.08,0-0.13,0H66v12h20.56
		c4.52-0.14,8.3,3.41,8.44,7.93C95,199.98,95,200.03,95,200.08z M160.93,204.48c7.21,0,13.06,5.85,13.06,13.06
		c0,7.21-5.85,13.06-13.06,13.06c-7.21,0-13.06-5.85-13.06-13.06C147.88,210.33,153.72,204.49,160.93,204.48L160.93,204.48z"/>
	<path class="st1" d="M333.99,230.88c13.84-0.01,25.05-11.23,25.05-25.07c0-11.52-7.86-21.55-19.04-24.31v-21.92
		c-0.01-4.67,3.71-8.48,8.38-8.58H405v-12h-56.62c-11.29,0.11-20.38,9.29-20.38,20.58v21.92c-13.44,3.31-21.64,16.89-18.33,30.32
		C312.43,223.02,322.46,230.88,333.99,230.88L333.99,230.88z M333.99,192.76c7.21,0,13.06,5.85,13.06,13.06s-5.85,13.06-13.06,13.06
		s-13.06-5.85-13.06-13.06c0,0,0,0,0,0C320.94,198.61,326.78,192.77,333.99,192.76z"/>
	<path class="st1" d="M150.58,169.91c11.49,0.05,21.52-7.76,24.3-18.91h12.56c11.3-0.02,20.47-9.14,20.56-20.44V88.8
		c-0.07-11.28-9.22-20.38-20.5-20.39c-4.65,0-8.44-3.73-8.5-8.38V22h-12v38.03c0.07,11.28,9.22,20.38,20.5,20.38
		c4.65,0,8.44,3.73,8.5,8.39v41.76c-0.08,4.67-3.89,8.42-8.56,8.44h-12.5c-3.23-13.45-16.76-21.74-30.22-18.5
		c-13.45,3.23-21.74,16.76-18.5,30.22C128.93,161.98,139,169.91,150.58,169.91L150.58,169.91z M150.58,131.77
		c7.21,0,13.06,5.85,13.06,13.06s-5.85,13.06-13.06,13.06s-13.06-5.85-13.06-13.06l0,0C137.53,137.62,143.37,131.78,150.58,131.77z"
		/>
</g>
<path class="st2" d="M100.12,323.04c6.22,66.84,0.05,176.15-0.02,177.25c-0.1,1.7,0.49,3.38,1.63,4.65c1.12,1.25,2.69,2,4.37,2.07
	h160.34c3.31,0,5.56-3.06,5.56-6.37V438.2c3-8.49,10.4-14.36,19.31-14.3c31.66,0.13,50.36,0.24,52.47,0.31
	c25.33,0.74,46.46-19.19,47.2-44.52c0.01-0.46,0.02-0.93,0.02-1.39V325h47.16c7.61,0.12,13.87-5.96,13.99-13.57
	c0.03-1.77-0.29-3.53-0.92-5.18L417.14,217c-0.02-6.53-0.1-33.43-0.29-36.51C411.4,81.22,328.73,3.86,229.33,5.01
	c-1.6,0.02-3.19,0.06-4.79,0.11c-29.57,0.89-58.38,9.62-83.46,25.3c-76.37,48.19-103.11,146.84-61.54,227
	C81.06,261.21,98.42,304.81,100.12,323.04L100.12,323.04z M93.99,96.01c13.06-22.53,31.4-41.55,53.45-55.41
	c23.31-14.56,50.07-22.67,77.54-23.49c1.49-0.05,2.99-0.09,4.49-0.1c93-1.07,170.34,71.32,175.41,164.19
	c0.14,2.27,0.24,23.35,0.27,36.97c0,0.73,0.14,1.45,0.39,2.13l34.48,90.32c0.25,0.56,0.16,1.21-0.22,1.68
	c-0.39,0.49-1.01,0.76-1.64,0.71h-52.98c-3.41,0.13-6.12,2.89-6.18,6.3v58.99c0.07,18.7-15.04,33.92-33.75,33.99
	c-0.34,0-0.69,0-1.03-0.01c-2.83-0.09-30.16-0.27-52.63-0.27h-0.14c-14.62-0.05-27.41,9.83-31.05,23.99
	c-0.19,0.45-0.33,0.93-0.4,1.42V495H112.42c1.22-25,5.08-114.54-0.35-172.89c-1.93-20.71-20.72-67.38-21.51-69.36
	c-0.07-0.18-0.15-0.4-0.24-0.57C64.5,202.98,65.88,143.94,93.99,96.01L93.99,96.01z"/>
<path class="st2" d="M135,373c3.31,0,6-2.69,6-6v-2c0-3.31-2.69-6-6-6s-6,2.69-6,6v2C129,370.31,131.69,373,135,373z"/>
<path class="st2" d="M135,465c3.31,0,6-2.69,6-6v-72c0-3.31-2.69-6-6-6s-6,2.69-6,6v72C129,462.31,131.69,465,135,465z"/>
</svg>
