<?xml version="1.0" encoding="utf-8"?>
<!-- Generator: Adobe Illustrator 25.2.1, SVG Export Plug-In . SVG Version: 6.00 Build 0)  -->
<svg version="1.1" id="Layer_1" xmlns="http://www.w3.org/2000/svg" xmlns:xlink="http://www.w3.org/1999/xlink" x="0px" y="0px"
	 viewBox="0 0 512 512" style="enable-background:new 0 0 512 512;" xml:space="preserve">
<style type="text/css">
	.st0{fill:#D4E1F4;}
	.st1{fill:#1C2226;}
	.st2{fill:#E20613;}
</style>
<path class="st0" d="M52.26,173.15c9.82-51.77,43.38-86.61,87.98-92.93c-5.01-0.69-10.07-1.04-15.13-1.05
	c-51.92,0-91.97,36.6-102.85,93.98C5.94,258.23,58.36,371,211.65,431.84c1.59,0.57,3.25,0.9,4.94,0.99
	c1.73-0.09,3.45-0.42,5.09-0.99c3.35-1.36,6.64-2.75,9.9-4.15C86.08,365.98,36.3,256.33,52.26,173.15L52.26,173.15z"/>
<g>
	<path class="st1" d="M307.58,74.15c-28.92,0-60.28,11.3-90.94,32.73c-31.08-22.38-61.86-33.72-91.53-33.72
		c-54.68,0-97.36,38.81-108.75,98.85c-16.75,87.32,36.46,203.24,193.07,265.4c0.1,0.04,0.21,0.08,0.32,0.12
		c4.4,1.73,9.29,1.73,13.68,0c0.12-0.04,0.24-0.08,0.36-0.13c65.9-26.7,118.72-65.17,152.76-111.23l-9.65-7.13
		c-32.7,44.24-83.67,81.3-147.43,107.17c-1.84,0.84-3.94,0.83-5.78-0.01C63.58,366.56,12.34,256.71,28.15,174.27
		c5.1-26.87,16.92-49.41,34.19-65.2c17.11-15.64,38.82-23.9,62.77-23.9c28.15,0,57.73,11.42,87.89,33.93
		c2.11,1.57,4.99,1.59,7.11,0.05c29.72-21.58,59.97-32.99,87.46-32.99c23.89,0,45.63,8.23,62.86,23.8
		c17.3,15.64,29.27,37.9,34.6,64.33c7.47,38.5-0.43,81.19-22.25,120.2l10.47,5.86c23.2-41.49,31.57-87.07,23.55-128.39
		C404.83,112.55,361.95,74.16,307.58,74.15L307.58,74.15z"/>
	<path class="st1" d="M71.13,134.84c2.04-2.61,1.57-6.38-1.04-8.42s-6.38-1.57-8.42,1.04c-10.64,13.65-17.92,30.5-21.64,50.09
		c-6.06,31.59-1.68,65.63,12.68,98.43c1.37,3.02,4.93,4.35,7.95,2.98c2.95-1.34,4.3-4.79,3.05-7.79
		c-13.38-30.57-17.49-62.16-11.88-91.37C55.18,162.1,61.67,146.97,71.13,134.84L71.13,134.84z"/>
	<path class="st1" d="M90.55,103.39c-3.81,1.94-7.46,4.17-10.92,6.67c-2.71,1.91-3.35,5.66-1.44,8.36c1.91,2.71,5.66,3.35,8.36,1.44
		c0.03-0.02,0.07-0.05,0.1-0.07c2.96-2.14,6.09-4.05,9.34-5.71c2.94-1.53,4.08-5.15,2.55-8.09
		C97.03,103.09,93.47,101.93,90.55,103.39z"/>
</g>
<path class="st2" d="M462.36,287.2c-12.02,0-21.77,9.74-21.77,21.76c0,12.02,9.74,21.77,21.76,21.77c12.02,0,21.77-9.74,21.77-21.76
	c0,0,0,0,0-0.01C484.11,296.95,474.38,287.21,462.36,287.2z M462.36,318.73c-5.39,0-9.77-4.37-9.77-9.76c0-5.39,4.37-9.77,9.76-9.77
	c5.39,0,9.77,4.37,9.77,9.76c0,0,0,0,0,0.01C472.12,314.36,467.76,318.73,462.36,318.73L462.36,318.73z"/>
<path class="st2" d="M462.36,267.92c-15.7,0.02-30.01,8.97-36.89,23.08h-43.73l-26.99-72.71c-2.62-7.31-9.43-12.3-17.2-12.59
	c-7.71-0.14-14.72,4.48-17.61,11.63l-29.1,70.99l-31.79-110.63c-2.92-9.91-13.31-15.57-23.22-12.66c-5.52,1.62-9.98,5.69-12.1,11.04
	L195.29,247H180c-3.31,0-6,2.69-6,6c0,3.31,2.69,6,6,6h19.35c2.44,0.04,4.65-1.42,5.57-3.68l29.95-74.74
	c1.05-2.68,3.68-4.42,6.56-4.33c2.84,0.12,5.28,2.03,6.09,4.75l36.55,127.24c0.91,3.19,4.24,5.03,7.42,4.11
	c1.77-0.51,3.2-1.79,3.9-3.49l35.65-86.94c1.04-2.55,3.54-4.2,6.3-4.15c2.54,0.04,5.13,2.08,6.16,4.83l28.43,76.6
	c0.88,2.33,3.14,3.85,5.63,3.8h44.2c-0.69,4.65-0.57,9.39,0.36,14h-53.37c-2.59,0-5.23-2.26-6.27-5.05l-20.18-54.45
	c-0.85-2.33-3.04-3.9-5.52-3.97c-2.47-0.05-4.71,1.41-5.65,3.69l-37.21,90.58c-1.5,3.41-5.48,4.95-8.89,3.44
	c-1.81-0.8-3.18-2.36-3.74-4.26l-36.44-126.9c-0.91-3.19-4.24-5.03-7.42-4.11c-1.78,0.51-3.23,1.82-3.92,3.54l-19.35,48.2
	c-1.01,2.56-3.46,4.25-6.21,4.29h-72.57c-3.59,0-6.5-2.91-6.5-6.5s2.91-6.5,6.5-6.5H140c3.31,0,6-2.69,6-6c0-3.31-2.69-6-6-6h-4.63
	c-10.22,0-18.5,8.28-18.5,18.5c0,10.22,8.28,18.5,18.5,18.5h72.57c7.65-0.04,14.51-4.72,17.35-11.82l12.86-32.07l31.61,110.11
	c2.2,7.65,9,13.08,16.95,13.52c0.34,0.02,0.68,0.04,1.03,0.04c7.56,0.06,14.4-4.47,17.29-11.46l31.38-76.39l14.83,40.19
	c2.82,7.56,9.86,12.87,17.52,12.87h57.81c11.07,19.77,36.08,26.83,55.85,15.76s26.83-36.08,15.76-55.85
	C490.92,275.95,477.22,267.92,462.36,267.92L462.36,267.92z M462.36,338.02c-16.04,0.01-29.06-12.99-29.06-29.04
	c-0.01-16.04,12.99-29.06,29.04-29.06c16.04-0.01,29.06,12.99,29.06,29.04c0,0,0,0.01,0,0.01C491.38,325,478.4,337.99,462.36,338.02
	L462.36,338.02z"/>
</svg>
