<?xml version="1.0" encoding="utf-8"?>
<!-- Generator: Adobe Illustrator 25.2.1, SVG Export Plug-In . SVG Version: 6.00 Build 0)  -->
<svg version="1.1" id="Layer_1" xmlns="http://www.w3.org/2000/svg" xmlns:xlink="http://www.w3.org/1999/xlink" x="0px" y="0px"
	 viewBox="0 0 512 512" style="enable-background:new 0 0 512 512;" xml:space="preserve">
<style type="text/css">
	.st0{fill:#D4E1F4;}
	.st1{fill:#E20613;}
	.st2{fill:#1C2226;}
</style>
<path class="st0" d="M102.43,283.72C87.12,277.1,80.08,259.32,86.7,244c3.05-7.05,8.68-12.68,15.73-15.73
	c-15.31-6.63-33.1,0.41-39.72,15.72s0.41,33.1,15.72,39.72C86.09,287.04,94.77,287.04,102.43,283.72z"/>
<path class="st0" d="M122.79,409.5c-15.31-6.63-33.1,0.41-39.72,15.72c-6.63,15.31,0.41,33.1,15.72,39.73c7.66,3.31,16.34,3.31,24,0
	c-15.31-6.63-22.35-24.41-15.73-39.72C110.11,418.17,115.74,412.55,122.79,409.5z"/>
<path class="st0" d="M122.79,47.06c-15.31-6.63-33.1,0.41-39.72,15.72s0.41,33.1,15.72,39.72c7.66,3.31,16.34,3.31,24,0
	c-15.31-6.63-22.35-24.41-15.73-39.72C110.11,55.73,115.74,50.11,122.79,47.06z"/>
<path class="st0" d="M58.21,127.94c-15.31-6.63-33.1,0.41-39.72,15.72s0.41,33.1,15.72,39.72c7.66,3.31,16.34,3.31,24,0
	c-15.31-6.63-22.35-24.41-15.72-39.72C45.54,136.61,51.16,130.99,58.21,127.94z"/>
<path class="st0" d="M58.21,328.62c-15.31-6.63-33.1,0.41-39.72,15.72c-6.63,15.31,0.41,33.1,15.72,39.72c7.66,3.31,16.34,3.31,24,0
	c-15.31-6.63-22.35-24.41-15.72-39.72C45.54,337.29,51.16,331.67,58.21,328.62z"/>
<path class="st1" d="M136.08,417.76l88.7-28.42l3.66,11.42l-88.7,28.42L136.08,417.76z"/>
<path class="st1" d="M121,251h105v12H121V251z"/>
<path class="st1" d="M238.54,279.21l-42.35,46.39l-29.04-22.5l65.51-25.32l-4.33-11.19l-72.27,27.93l-35.09-27.18l-7.35,9.49
	l29.37,22.75l-77.15,29.81l4.33,11.19l83.9-32.42l34,26.34l-24.18,26.48l-86.15-12.78l-1.76,11.87l78.15,11.6l-32.26,35.33
	l8.86,8.09l37.71-41.3l57.54,8.54l1.76-11.87l-49.54-7.35l19.39-21.24l33.38,25.86l7.35-9.49l-32.61-25.26l41.7-45.67L238.54,279.21
	z"/>
<path class="st1" d="M238.35,153.74l-7.42-9.43l-29.89,23.52l-22.69-26.85l48.13-3.38l-0.84-11.97l-56.89,4l-31.58-37.36l-9.16,7.75
	l25.91,30.66l-80.59,5.67l0.84,11.97l89.34-6.28l28.09,33.23l-30.58,24.07l-82.83-40.31l-5.25,10.79l77.61,37.77l-36.96,29.09
	l7.42,9.43l41.52-32.68l65.34,31.8l5.25-10.79l-60.11-29.26l26.34-20.73l40.1,47.45l9.16-7.75L208.79,177L238.35,153.74z"/>
<path class="st1" d="M138.68,87.17l4.04-11.3l88.78,31.76l-4.04,11.3L138.68,87.17z"/>
<path class="st1" d="M283.96,400.63l3.66-11.42l88.7,28.42l-3.66,11.42L283.96,400.63z"/>
<path class="st1" d="M287,251h105v12H287V251z"/>
<path class="st1" d="M273.42,231.88l40.1-47.45l26.34,20.73l-60.11,29.26l5.25,10.79l65.33-31.8l41.52,32.68l7.42-9.43l-36.96-29.09
	l77.61-37.77l-5.25-10.79l-82.83,40.31l-30.58-24.07l28.09-33.23l89.34,6.28l0.84-11.97l-80.59-5.67l25.91-30.66l-9.16-7.75
	l-31.58,37.36l-56.89-4l-0.84,11.97l48.13,3.38l-22.69,26.85l-29.89-23.52l-7.42,9.43L304.09,177l-39.83,47.13L273.42,231.88z"/>
<path class="st1" d="M281.59,107.71l88.78-31.76l4.04,11.3l-88.78,31.76L281.59,107.71z"/>
<path class="st1" d="M399.25,276.82l-7.35-9.49l-35.09,27.18l-72.27-27.93l-4.33,11.19l65.51,25.32l-29.04,22.5l-42.35-46.39
	l-8.86,8.09l41.7,45.67l-32.61,25.26l7.35,9.49l33.38-25.86l19.39,21.24l-49.54,7.35l1.76,11.87l57.54-8.54l37.71,41.3l8.86-8.09
	l-32.26-35.33l78.15-11.6l-1.76-11.87l-86.15,12.78l-24.18-26.49l33.99-26.33l83.9,32.42l4.33-11.19l-77.15-29.81L399.25,276.82z"/>
<path class="st1" d="M153.94,66.15l3.24,1.19c3.11,1.16,6.56-0.42,7.72-3.53s-0.42-6.56-3.53-7.72c-0.02-0.01-0.04-0.01-0.06-0.02
	l-3.24-1.19c-3.11-1.14-6.56,0.46-7.7,3.57C149.24,61.56,150.83,65,153.94,66.15L153.94,66.15z"/>
<path class="st1" d="M175.26,73.97l41.19,15.12c3.11,1.14,6.56-0.46,7.7-3.57c1.14-3.11-0.46-6.56-3.57-7.7l-41.2-15.12
	c-3.1-1.18-6.56,0.38-7.74,3.48c-1.18,3.1,0.38,6.56,3.48,7.74C175.17,73.93,175.21,73.95,175.26,73.97L175.26,73.97z"/>
<g>
	<path class="st2" d="M64.83,281.6c14.14,14.14,37.07,14.14,51.21,0c14.14-14.14,14.14-37.07,0-51.21s-37.07-14.14-51.21,0
		c0,0,0,0,0,0c-14.14,14.05-14.21,36.9-0.17,51.04C64.72,281.49,64.77,281.55,64.83,281.6z M73.31,238.88
		c9.45-9.45,24.78-9.45,34.24,0c9.45,9.45,9.45,24.78,0,34.24s-24.78,9.45-34.24,0c0,0,0,0,0,0c-9.45-9.4-9.5-24.68-0.1-34.13
		C73.24,238.95,73.28,238.92,73.31,238.88L73.31,238.88z"/>
	<path class="st2" d="M46.21,191.85c19.99-0.01,36.19-16.22,36.18-36.21c-0.01-19.99-16.22-36.19-36.21-36.18
		C26.18,119.48,9.99,135.69,10,155.68c0.01,9.6,3.82,18.8,10.61,25.59C27.4,188.06,36.61,191.87,46.21,191.85z M29.09,138.54
		c9.45-9.45,24.78-9.45,34.24,0s9.45,24.78,0,34.24s-24.78,9.45-34.24,0c0,0,0,0,0,0c-9.45-9.4-9.5-24.68-0.1-34.14
		C29.02,138.61,29.06,138.58,29.09,138.54L29.09,138.54z"/>
	<path class="st2" d="M71.81,330.73c-14.14-14.13-37.06-14.12-51.19,0.02C6.5,344.9,6.51,367.82,20.65,381.94
		c14.13,14.12,37.03,14.12,51.16,0C85.93,367.79,85.93,344.89,71.81,330.73z M63.33,373.46c-9.45,9.45-24.78,9.44-34.22-0.01
		s-9.44-24.78,0.01-34.22c9.45-9.44,24.76-9.44,34.21,0C72.77,348.68,72.77,364,63.33,373.46z"/>
	<path class="st2" d="M85.18,411.62c-14.14,14.14-14.14,37.07,0,51.21c14.14,14.14,37.07,14.14,51.21,0
		c14.14-14.14,14.14-37.07,0-51.21c0,0,0,0,0,0C122.24,397.5,99.33,397.5,85.18,411.62z M127.91,454.34
		c-9.45,9.45-24.78,9.44-34.22-0.01s-9.44-24.78,0.01-34.22c9.45-9.44,24.76-9.44,34.21,0
		C137.35,429.56,137.35,444.88,127.91,454.34z"/>
	<path class="st2" d="M85.18,49.17c-14.14,14.14-14.14,37.07,0,51.21s37.07,14.14,51.21,0s14.14-37.07,0-51.21c0,0,0,0,0,0
		C122.24,35.05,99.33,35.05,85.18,49.17z M127.91,91.9c-9.45,9.45-24.78,9.44-34.22-0.01s-9.44-24.78,0.01-34.22
		c9.45-9.44,24.76-9.44,34.21,0C137.35,67.12,137.35,82.44,127.91,91.9z"/>
	<path class="st2" d="M229.96,230.4c-14.14,14.14-14.14,37.07,0,51.21c14.14,14.14,37.07,14.14,51.21,0s14.14-37.07,0-51.21
		c0,0,0,0,0,0C267.02,216.28,244.11,216.28,229.96,230.4L229.96,230.4z M272.68,273.12c-9.45,9.45-24.78,9.44-34.22-0.01
		s-9.44-24.78,0.01-34.22c9.45-9.44,24.76-9.44,34.21,0C282.12,248.35,282.12,263.66,272.68,273.12L272.68,273.12z"/>
	<path class="st2" d="M229.96,102.06c-14.14,14.14-14.14,37.07,0,51.21c14.14,14.14,37.07,14.14,51.21,0s14.14-37.07,0-51.21
		c0,0,0,0,0,0C267.02,87.94,244.11,87.94,229.96,102.06L229.96,102.06z M272.68,144.78c-9.45,9.45-24.78,9.44-34.22-0.02
		s-9.44-24.78,0.02-34.22c9.45-9.44,24.76-9.44,34.21,0C282.12,120,282.12,135.32,272.68,144.78z"/>
	<path class="st2" d="M229.96,358.73c-14.14,14.14-14.14,37.07,0,51.21c14.14,14.14,37.07,14.14,51.21,0s14.14-37.07,0-51.21
		c0,0,0,0,0,0C267.02,344.61,244.11,344.61,229.96,358.73L229.96,358.73z M272.68,401.46c-9.45,9.45-24.78,9.44-34.22-0.02
		c-9.45-9.45-9.44-24.78,0.02-34.22c9.45-9.44,24.76-9.44,34.21,0C282.12,376.68,282.12,392,272.68,401.46L272.68,401.46z"/>
	<path class="st2" d="M395.96,281.6c14.14,14.14,37.07,14.14,51.21,0c14.14-14.14,14.14-37.07,0-51.21
		c-14.14-14.14-37.07-14.14-51.21,0c0,0,0,0,0,0c-14.14,14.05-14.22,36.9-0.17,51.04C395.85,281.49,395.91,281.54,395.96,281.6z
		 M404.45,238.88c9.45-9.45,24.78-9.45,34.24,0c9.45,9.45,9.45,24.78,0,34.24s-24.78,9.45-34.24,0c0,0,0,0,0,0
		c-9.45-9.4-9.5-24.68-0.1-34.13C404.38,238.95,404.42,238.91,404.45,238.88L404.45,238.88z"/>
	<path class="st2" d="M440.19,130.06c-14.14,14.14-14.14,37.07,0,51.21c14.14,14.14,37.07,14.14,51.21,0
		c14.14-14.14,14.14-37.07,0-51.21c0,0,0,0,0,0C477.24,115.94,454.34,115.94,440.19,130.06z M482.91,172.78
		c-9.45,9.45-24.78,9.44-34.22-0.01c-9.45-9.45-9.44-24.78,0.01-34.22c9.45-9.44,24.76-9.44,34.21,0
		C492.35,148,492.35,163.32,482.91,172.78z"/>
	<path class="st2" d="M440.19,330.73c-14.14,14.14-14.14,37.07,0,51.21c14.14,14.14,37.07,14.14,51.21,0
		c14.14-14.14,14.14-37.07,0-51.21c0,0,0,0,0,0C477.24,316.62,454.34,316.62,440.19,330.73z M482.91,373.46
		c-9.45,9.45-24.78,9.44-34.22-0.01s-9.44-24.78,0.01-34.22c9.45-9.44,24.76-9.44,34.21,0C492.35,348.68,492.35,364,482.91,373.46z"
		/>
	<path class="st2" d="M375.61,411.62c-14.14,14.14-14.14,37.07,0,51.21c14.14,14.14,37.07,14.14,51.21,0
		c14.14-14.14,14.14-37.07,0-51.21c0,0,0,0,0,0C412.67,397.5,389.76,397.5,375.61,411.62z M418.33,454.34
		c-9.45,9.45-24.78,9.44-34.22-0.01s-9.44-24.78,0.01-34.22c9.45-9.44,24.76-9.44,34.21,0
		C427.77,429.56,427.77,444.88,418.33,454.34z"/>
	<path class="st2" d="M401.21,110.97c19.99-0.01,36.19-16.22,36.18-36.21c-0.01-19.99-16.22-36.19-36.21-36.18
		C381.18,38.59,364.99,54.81,365,74.8c0.01,9.6,3.82,18.8,10.61,25.59C382.4,107.18,391.61,110.99,401.21,110.97z M384.09,57.66
		c9.45-9.45,24.78-9.45,34.24,0c9.45,9.45,9.45,24.78,0,34.24s-24.78,9.45-34.24,0c0,0,0,0,0,0c-9.45-9.4-9.5-24.68-0.11-34.13
		C384.02,57.73,384.06,57.7,384.09,57.66z"/>
</g>
</svg>
