<?xml version="1.0" encoding="utf-8"?>
<!-- Generator: Adobe Illustrator 25.2.1, SVG Export Plug-In . SVG Version: 6.00 Build 0)  -->
<svg version="1.1" id="Layer_1" xmlns="http://www.w3.org/2000/svg" xmlns:xlink="http://www.w3.org/1999/xlink" x="0px" y="0px"
	 viewBox="0 0 512 512" style="enable-background:new 0 0 512 512;" xml:space="preserve">
<style type="text/css">
	.st0{fill:#D4E1F4;}
	.st1{fill:#1C2226;}
	.st2{fill:#E20613;}
</style>
<path class="st0" d="M100,88h30v334h-30V88z"/>
<g>
	<path class="st1" d="M403,152v312.56c0,0.06,0.09,0.12,0.1,0.18c0.22,6.3-2.15,12.42-6.56,16.93c-4.52,4.7-10.77,7.35-17.29,7.32
		H100.05c-18.86-0.05-34.1-15.38-34.06-34.23c0-0.06,0-0.13,0-0.19V89.03C65.88,70.36,80.92,55.12,99.59,55c0.16,0,0.31,0,0.47,0
		H263V43H100.05C74.75,42.87,54.13,63.28,54,88.59c0,0.15,0,0.29,0,0.44v365.55c-0.15,25.49,20.4,46.28,45.89,46.42
		c0.05,0,0.11,0,0.16,0h279.19c9.74-0.02,19.07-3.98,25.85-10.97c6.71-6.92,9.9-15.99,9.9-25.56V152L403,152z"/>
	<path class="st1" d="M221.72,452c-3.31,0-6,2.69-6,6s2.69,6,6,6h25.38c3.31,0,6-2.69,6-6s-2.69-6-6-6H221.72z"/>
	<path class="st1" d="M210,222v29h-25c-3.31,0-7,1.69-7,5v24c0,3.31,3.69,7,7,7h25v27c0,3.31,3.69,7,7,7h29c3.31,0,5-3.69,5-7v-27
		h27c3.31,0,5-3.69,5-7v-24c0-3.31-1.69-5-5-5h-27v-29c0-3.31-1.69-5-5-5h-29C213.69,217,210,218.69,210,222z M222,256v-27h17v27
		c0,3.31,3.69,7,7,7h25v12h-25c-3.31,0-7,1.69-7,5v29h-17v-29c0-3.31-1.69-5-5-5h-27v-12h27C220.31,263,222,259.31,222,256z"/>
	<path class="st1" d="M144.2,264.23c0.04,49.8,40.43,90.13,90.23,90.1c49.8-0.04,90.13-40.43,90.1-90.23
		c-0.04-49.77-40.39-90.1-90.16-90.1C184.57,174.08,144.24,214.44,144.2,264.23L144.2,264.23z M312.53,264.23
		c-0.04,43.17-35.06,78.13-78.23,78.1c-43.17-0.04-78.13-35.06-78.1-78.23c0.04-43.14,35.02-78.09,78.16-78.1
		C277.53,186.07,312.49,221.06,312.53,264.23L312.53,264.23z"/>
	<path class="st1" d="M141,117.65c0-3.31-2.69-6-6-6s-6,2.69-6,6l0,0v6.36c0,3.31,2.69,6,6,6s6-2.69,6-6V117.65z"/>
	<path class="st1" d="M135,137.21c-3.31,0-6,2.69-6,6v66.7c0,3.31,2.69,6,6,6s6-2.69,6-6v-66.7C141,139.9,138.31,137.21,135,137.21z
		"/>
	<path class="st1" d="M250,82c-3.31,0-6,2.69-6,6s2.69,6,6,6h13V82H250z"/>
	<path class="st1" d="M363,151v265H106V94h104c3.31,0,6-2.69,6-6s-2.69-6-6-6H100.26c-3.45,0.01-6.25,2.81-6.26,6.26v333.6
		c0.01,3.38,2.75,6.13,6.13,6.14h268.42c3.56-0.01,6.43-2.89,6.45-6.45V151H363z"/>
</g>
<path class="st2" d="M421.7,54h-45.76c-3.31,0-6,2.69-6,6s2.69,6,6,6h45.76c3.31,0,6-2.69,6-6S425.01,54,421.7,54z"/>
<path class="st2" d="M293.78,66h57.2c3.31,0,6-2.69,6-6s-2.69-6-6-6h-57.2c-3.31,0-6,2.69-6,6S290.46,66,293.78,66z"/>
<path class="st2" d="M421.7,80h-91.52c-3.31,0-6,2.69-6,6s2.69,6,6,6h91.52c3.31,0,6-2.69,6-6S425.01,80,421.7,80z"/>
<path class="st2" d="M293.78,92h11.44c3.31,0,6-2.69,6-6s-2.69-6-6-6h-11.44c-3.31,0-6,2.69-6,6S290.46,92,293.78,92z"/>
<path class="st2" d="M421.7,106h-49.92c-3.31,0-6,2.69-6,6s2.69,6,6,6h49.92c3.31,0,6-2.69,6-6S425.01,106,421.7,106z"/>
<path class="st2" d="M346.82,106h-53.04c-3.31,0-6,2.69-6,6s2.69,6,6,6h53.04c3.31,0,6-2.69,6-6S350.13,106,346.82,106z"/>
<path class="st2" d="M431.58,11H283.9c-14.81,0-26.84,11.98-26.9,26.79v92.58c0.08,14.78,12.12,26.7,26.9,26.63h17.94
	c6.42,0,11.07,2.04,14.22,6.06c8.23,10.5,5.06,32.99,3.14,40.74c-0.81,3.22,1.15,6.49,4.38,7.3c0.99,0.25,2.02,0.24,3.01-0.02
	c7.24-2.34,13.92-6.16,19.6-11.22c8.38-7.4,18.12-20.86,17.97-42.86h67.43c2.54,0.03,5.07-0.32,7.5-1.04
	c11.26-3.43,18.94-13.82,18.92-25.59V37.79c0.16-14.63-11.57-26.63-26.2-26.79C431.72,11,431.65,11,431.58,11L431.58,11z
	 M446,130.37c0.05,6.47-4.17,12.21-10.36,14.09c-1.32,0.38-2.69,0.56-4.06,0.54h-70.15c-2.54,0.02-4.97,1.09-6.71,2.94
	c-1.78,1.89-2.72,4.41-2.62,7.01c0.97,22.84-10.56,34.56-19.29,40.11c1.25-11.33,1.28-28.43-7.29-39.39
	c-5.5-7.03-13.47-10.67-23.69-10.67H283.9c-8.15,0.08-14.82-6.46-14.9-14.61c0-0.01,0-0.01,0-0.02V37.79
	c0.06-8.19,6.71-14.79,14.9-14.79h147.68c8,0.04,14.46,6.56,14.42,14.56c0,0.08,0,0.15,0,0.23V130.37z"/>
</svg>
