<?xml version="1.0" encoding="utf-8"?>
<!-- Generator: Adobe Illustrator 25.2.1, SVG Export Plug-In . SVG Version: 6.00 Build 0)  -->
<svg version="1.1" id="Layer_1" xmlns="http://www.w3.org/2000/svg" xmlns:xlink="http://www.w3.org/1999/xlink" x="0px" y="0px"
	 viewBox="0 0 491 491" style="enable-background:new 0 0 491 491;" xml:space="preserve">
<style type="text/css">
	.st0{fill:#D4E1F4;}
	.st1{fill:#1C2226;}
	.st2{fill:#E20613;}
</style>
<path class="st0" d="M287.26,321.63c0.26-0.67,0.39-1.4,0.39-2.12c0.02-9.47,0.08-20.19,0.15-21.42
	c2.74-52.45,46.14-93.53,98.66-93.41c0.38,0,0.74,0,1.13,0.01c0.85,0.01,1.7,0.03,2.55,0.06c1.25,0.05,2.49,0.12,3.72,0.22
	c-49.48,3.68-88.5,43.58-91.09,93.12c-0.07,1.23-0.13,11.95-0.15,21.42c0,0.73-0.14,1.45-0.39,2.12l-19.42,50.87h-14.97
	L287.26,321.63z"/>
<path class="st0" d="M317.76,378.49v34.4c0,8.85,6.68,16.28,15.49,17.2c-7.58,0.04-11.84,0.07-12.66,0.1
	c-4.67,0.13-9.2-1.63-12.56-4.89c-3.35-3.26-5.25-7.73-5.25-12.41v-34.4c0-3.31-2.68-5.99-5.99-5.99h14.97
	C315.08,372.5,317.76,375.18,317.76,378.49z"/>
<path class="st0" d="M202.74,321.63c-0.26-0.67-0.39-1.4-0.39-2.12c-0.02-9.47-0.08-20.19-0.15-21.42
	c-2.74-52.45-46.14-93.53-98.66-93.41c-0.38,0-0.75,0-1.13,0.01c-0.85,0.01-1.7,0.03-2.55,0.06c-1.25,0.05-2.49,0.12-3.72,0.22
	c49.48,3.68,88.5,43.58,91.09,93.12c0.07,1.23,0.13,11.95,0.15,21.42c0,0.73,0.14,1.45,0.39,2.12l19.42,50.87h14.97L202.74,321.63z"
	/>
<path class="st0" d="M172.24,378.49v34.4c0,8.85-6.68,16.28-15.49,17.2c7.58,0.04,11.84,0.07,12.66,0.1
	c4.67,0.13,9.2-1.63,12.55-4.89c3.35-3.26,5.24-7.73,5.24-12.41v-34.4c0-3.31,2.68-5.99,5.99-5.99h-14.97
	C174.92,372.5,172.24,375.18,172.24,378.49z"/>
<path class="st1" d="M392.57,192.72c-0.95-0.04-1.9-0.06-2.86-0.07c-0.02,0-0.04,0-0.05,0h-0.02
	c-59.26-0.64-108.53,45.48-111.8,104.65c-0.11,1.82-0.16,16.08-0.17,21.02l-19.72,51.65c-1.25,3.27-0.81,6.95,1.18,9.83
	c1.98,2.88,5.26,4.61,8.77,4.61h24.9v28.41c-0.03,7.93,3.19,15.52,8.89,21.02c5.69,5.5,13.35,8.47,21.26,8.25
	c0.69-0.02,5.57-0.07,30.47-0.18h0.04c3.91,0,7.38,2.51,8.6,6.22v36.03c0,3.31,2.68,5.99,5.99,5.99h93.51
	c1.65,0,3.22-0.68,4.35-1.88s1.72-2.81,1.62-4.46c-0.04-0.64-3.63-64.2-0.02-102.99c0.82-8.77,8.69-29.74,11.79-37.45
	c16.44-31.52,15.5-69.28-2.49-99.94C459.38,213.11,427.53,193.94,392.57,192.72z M464.97,246.97h-39.65
	c-16.39,0-29.68-13.29-29.68-29.68v-12.4C424.15,207.01,449.93,222.65,464.97,246.97z M337.9,218.46v12.83c0,13.25-10.74,24-24,24
	h-11.83C310.55,240.06,322.92,227.35,337.9,218.46z M290.22,292.78H306c6.99,0,12.67,5.67,12.67,12.67c0,7-5.67,12.67-12.67,12.67
	h-16.35c0.02-9.11,0.08-18.91,0.15-20.12C289.9,296.24,290.04,294.5,290.22,292.78z M322.59,430.12c-4.67,0.14-9.2-1.63-12.56-4.88
	c-3.35-3.26-5.25-7.73-5.25-12.41v-34.4c0-3.31-2.68-5.99-5.99-5.99h-28.96L286,330.09h20c13.61,0,24.64-11.03,24.64-24.64
	c0-13.61-11.03-24.64-24.64-24.64h-13.76c1.07-4.6,2.47-9.13,4.19-13.54h17.48c19.87,0,35.97-16.11,35.97-35.98V212.4
	c10.73-4.52,22.16-7.11,33.78-7.66v12.55c0,23.01,18.65,41.66,41.66,41.66h45.96c4.91,11.18,7.54,23.23,7.72,35.44l-43.5,10.83
	c-18.02-17.17-45.01-20.87-66.97-9.17s-33.98,36.14-29.79,60.68c4.18,24.53,23.61,43.63,48.21,47.39
	c-4.01,15.17-17.71,25.76-33.4,25.83h-0.16C334.28,430.02,323.92,430.08,322.59,430.12z M426.09,381.18L413,361.88
	c7.45-8.69,7.31-21.55-0.32-30.07c-7.63-8.53-20.39-10.09-29.86-3.66c-9.46,6.43-12.7,18.88-7.57,29.11
	c5.12,10.23,17.03,15.09,27.85,11.36l13.1,19.31c-21.61,10.87-47.95,3.12-60.21-17.73c-12.26-20.85-6.24-47.64,13.76-61.24
	c20-13.6,47.13-9.35,62.01,9.73C446.63,337.74,444.16,365.09,426.09,381.18z M405.72,351.15l-5.1-7.51
	c-1.86-2.73-5.57-3.43-8.31-1.58c-2.73,1.86-3.45,5.57-1.61,8.3l5.09,7.51c-0.05,0-0.09,0.01-0.14,0.01c-4.8,0-9.03-3.13-10.42-7.72
	s0.37-9.55,4.36-12.22c3.99-2.67,9.25-2.41,12.96,0.63C406.27,341.61,407.55,346.72,405.72,351.15L405.72,351.15z M393.45,449.69
	c0-2.31,1.87-4.18,4.18-4.18c2.31,0,4.18,1.87,4.18,4.18c0,2.31-1.87,4.18-4.18,4.18S393.45,451.99,393.45,449.69L393.45,449.69z
	 M468.31,338.63c-1.18,2.92-11.57,28.87-12.72,41.1c-3.05,32.81-1.17,81.18-0.34,98.46h-51.64v-13.5
	c7.2-2.87,11.34-10.45,9.88-18.06c-1.46-7.61-8.12-13.11-15.87-13.11c-7.75,0-14.41,5.5-15.87,13.11
	c-1.46,7.61,2.68,15.19,9.88,18.06v13.5h-17.6V447.3c0-0.49-0.06-0.98-0.18-1.46c-0.65-2.58-1.79-5.01-3.35-7.17
	c14.64-5.81,25.39-18.59,28.59-34.02c8.35-0.48,16.5-2.79,23.87-6.76l7.08,10.44v13.53c-7.2,2.86-11.36,10.42-9.91,18.03
	c1.44,7.61,8.09,13.12,15.84,13.14c7.75,0.02,14.42-5.47,15.89-13.08c1.48-7.6-2.65-15.19-9.84-18.07v-15.4
	c0-1.2-0.36-2.37-1.03-3.36l-8.13-11.98c22.36-18.77,27.15-51.3,11.15-75.72l34.3-8.53c-1.36,10.9-4.67,21.47-9.76,31.2
	C468.46,338.27,468.38,338.45,468.31,338.63z M436,432.7c2.31,0,4.18,1.87,4.18,4.18c0,2.31-1.87,4.18-4.18,4.18
	c-2.31,0-4.18-1.87-4.18-4.18C431.82,434.58,433.69,432.71,436,432.7L436,432.7z"/>
<path class="st1" d="M432.74,329.13c-0.96-1.98-2.07-3.88-3.32-5.69c-1.44-2.07-3.06-4-4.86-5.76c-1.52-1.51-3.73-2.09-5.81-1.52
	c-2.07,0.57-3.67,2.19-4.21,4.27c-0.54,2.07,0.07,4.28,1.61,5.78c1.27,1.25,2.42,2.62,3.44,4.08c0.89,1.28,1.68,2.64,2.35,4.04
	c2.42,5,3.36,10.59,2.7,16.11c-0.4,3.28,1.95,6.27,5.23,6.66c0.24,0.03,0.48,0.05,0.72,0.05c3.03,0,5.58-2.27,5.94-5.27
	c0.19-1.63,0.29-3.26,0.29-4.9C436.83,340.79,435.44,334.69,432.74,329.13z"/>
<path class="st1" d="M371.29,313.85c-6.32,4.64-11.18,10.99-14,18.31c-0.82,2.01-0.5,4.3,0.85,6c1.35,1.7,3.51,2.53,5.65,2.18
	c2.14-0.35,3.93-1.82,4.67-3.86c2-5.19,5.43-9.69,9.91-12.97c2.65-1.96,3.21-5.7,1.26-8.35
	C377.68,312.5,373.95,311.92,371.29,313.85L371.29,313.85z"/>
<path class="st1" d="M374.96,382.56c6.3,3.66,13.45,5.59,20.74,5.6c0.54,0,1.08-0.01,1.62-0.03c3.3-0.13,5.88-2.91,5.75-6.22
	c-0.13-3.31-2.91-5.88-6.21-5.75c-5.56,0.22-11.06-1.15-15.87-3.95c-1.85-1.1-4.14-1.11-6.01-0.05c-1.87,1.06-3.02,3.05-3.02,5.2
	C371.94,379.51,373.09,381.49,374.96,382.56L374.96,382.56z"/>
<path class="st1" d="M213.32,318.32c-0.01-4.94-0.06-19.19-0.17-20.97c-3.25-59.22-52.56-105.38-111.87-104.7
	c-0.96,0.01-1.91,0.03-2.85,0.07c-34.95,1.22-66.81,20.4-84.24,50.72C-3.8,274.1-4.74,311.86,11.7,343.38
	c3.1,7.7,10.97,28.67,11.79,37.45c3.61,38.79,0.02,102.36-0.02,103c-0.09,1.65,0.5,3.26,1.63,4.46c1.13,1.2,2.71,1.88,4.35,1.88
	h93.51c3.31,0,5.99-2.68,5.99-5.99v-36.03c1.22-3.72,4.69-6.23,8.6-6.22h0.04c24.9,0.1,29.77,0.16,30.46,0.18
	c7.91,0.22,15.57-2.76,21.26-8.25c5.71-5.5,8.92-13.09,8.89-21.02v-28.42h24.91c3.5,0,6.78-1.72,8.77-4.61s2.43-6.56,1.18-9.84
	L213.32,318.32z M192.2,372.44c-3.31,0-5.99,2.68-5.99,5.99v34.4c0,4.68-1.89,9.15-5.24,12.41c-3.35,3.26-7.88,5.02-12.55,4.89
	c-1.34-0.04-11.7-0.1-30.79-0.18h-0.16c-17.93-0.07-32.84-13.79-34.4-31.65c-0.27-3.3-3.16-5.75-6.46-5.48
	c-3.3,0.27-5.75,3.16-5.48,6.46c1.53,17.64,12.9,32.9,29.36,39.41c-1.56,2.16-2.69,4.59-3.35,7.17c-0.12,0.48-0.18,0.97-0.18,1.46
	v30.88H35.75c0.83-17.27,2.71-65.64-0.34-98.46c-1.14-12.23-11.54-38.18-12.72-41.1c-0.07-0.18-0.15-0.35-0.24-0.53
	c-14.66-27.93-13.87-61.44,2.09-88.64c15.38-26.76,43.48-43.69,74.33-44.78c0.85-0.03,1.7-0.05,2.55-0.06
	c52.95-0.71,97.01,40.53,99.78,93.41c0.07,1.23,0.13,11.95,0.15,21.41c0,0.73,0.14,1.44,0.39,2.12l19.42,50.87H192.2z"/>
<g>
	<path class="st2" d="M409.89,0.96H193.17c-15.11,0.02-27.35,12.26-27.37,27.37v115.41c0.02,15.11,12.26,27.36,27.37,27.37h8.7
		c0.65-0.04,1.25,0.39,1.43,1.02c4.88,27.64,23.01,36.26,27.27,37.93c0.87,0.46,1.84,0.69,2.82,0.69c0.29,0,0.59-0.02,0.88-0.07
		c2.54-0.4,4.58-2.3,5.16-4.81c0.5-2.18,0.81-4.41,0.94-6.65c1.39-14.82,4.09-28.12,21.72-28.12h147.8
		c15.11-0.02,27.36-12.26,27.37-27.37V28.33C437.25,13.23,425,0.98,409.89,0.96z M425.29,143.75c-0.01,8.5-6.9,15.39-15.4,15.4
		h-147.8c-27.72,0-32,23.34-33.35,36.08c-4.9-3.9-11.22-11.42-13.65-25.17c-1.17-6.37-6.75-10.97-13.22-10.91h-8.7
		c-8.5-0.01-15.38-6.9-15.4-15.4V28.33c0.01-8.5,6.9-15.38,15.4-15.4h216.72c8.5,0.01,15.39,6.9,15.4,15.4V143.75z"/>
	<path class="st2" d="M404.55,96.25h-54.79c-3.31,0-5.99,2.68-5.99,5.99c0,3.31,2.68,5.99,5.99,5.99h54.79
		c3.31,0,5.99-2.68,5.99-5.99C410.53,98.93,407.85,96.25,404.55,96.25z"/>
	<path class="st2" d="M237.51,96.25c-3.31,0-5.99,2.68-5.99,5.99c0,3.31,2.68,5.99,5.99,5.99h86.36c3.31,0,5.99-2.68,5.99-5.99
		c0-3.31-2.68-5.99-5.99-5.99H237.51z"/>
	<path class="st2" d="M198.51,108.23h18.85c3.31,0,5.99-2.68,5.99-5.99c0-3.31-2.68-5.99-5.99-5.99h-18.85
		c-3.31,0-5.99,2.68-5.99,5.99C192.52,105.55,195.21,108.23,198.51,108.23z"/>
	<path class="st2" d="M404.55,69.52h-14.31c-3.31,0-5.99,2.68-5.99,5.99c0,3.31,2.68,5.99,5.99,5.99h14.31
		c3.31,0,5.99-2.68,5.99-5.99C410.53,72.2,407.85,69.52,404.55,69.52z"/>
	<path class="st2" d="M370.21,81.49c3.31,0,5.99-2.68,5.99-5.99c0-3.31-2.68-5.99-5.99-5.99h-23.95c-3.31,0-5.99,2.68-5.99,5.99
		c0,3.31,2.68,5.99,5.99,5.99H370.21z"/>
	<path class="st2" d="M198.51,81.49h127.55c3.31,0,5.99-2.68,5.99-5.99c0-3.31-2.68-5.99-5.99-5.99H198.51
		c-3.31,0-5.99,2.68-5.99,5.99C192.52,78.82,195.21,81.49,198.51,81.49z"/>
	<path class="st2" d="M404.55,37.44h-11.57c-3.31,0-5.99,2.68-5.99,5.99c0,3.31,2.68,5.99,5.99,5.99h11.57
		c3.31,0,5.99-2.68,5.99-5.99C410.53,40.12,407.85,37.44,404.55,37.44z"/>
	<path class="st2" d="M323.13,49.42h49.54c3.31,0,5.99-2.68,5.99-5.99c0-3.31-2.68-5.99-5.99-5.99h-49.54
		c-3.31,0-5.99,2.68-5.99,5.99C317.14,46.74,319.83,49.42,323.13,49.42z"/>
	<path class="st2" d="M198.51,49.42h104.42c3.31,0,5.99-2.68,5.99-5.99c0-3.31-2.68-5.99-5.99-5.99H198.51
		c-3.31,0-5.99,2.68-5.99,5.99C192.52,46.74,195.21,49.42,198.51,49.42z"/>
	<path class="st2" d="M351.12,122.98h-2.21c-3.31,0-5.99,2.68-5.99,5.99c0,3.31,2.68,5.99,5.99,5.99h2.21
		c3.31,0,5.99-2.68,5.99-5.99C357.11,125.66,354.43,122.98,351.12,122.98z"/>
	<path class="st2" d="M330.37,122.98h-39.59c-3.31,0-5.99,2.68-5.99,5.99c0,3.31,2.68,5.99,5.99,5.99h39.59
		c3.31,0,5.99-2.68,5.99-5.99C336.36,125.66,333.67,122.98,330.37,122.98z"/>
	<path class="st2" d="M265.53,122.98h-67.02c-3.31,0-5.99,2.68-5.99,5.99c0,3.31,2.68,5.99,5.99,5.99h67.02
		c3.31,0,5.99-2.68,5.99-5.99C271.52,125.66,268.84,122.98,265.53,122.98z"/>
</g>
</svg>
