<?xml version="1.0" encoding="utf-8"?>
<!-- Generator: Adobe Illustrator 25.2.1, SVG Export Plug-In . SVG Version: 6.00 Build 0)  -->
<svg version="1.1" id="Layer_1" xmlns="http://www.w3.org/2000/svg" xmlns:xlink="http://www.w3.org/1999/xlink" x="0px" y="0px"
	 viewBox="0 0 512 512" style="enable-background:new 0 0 512 512;" xml:space="preserve">
<style type="text/css">
	.st0{fill:#D4E1F4;}
	.st1{fill:#E20613;}
	.st2{fill:#1C2226;}
</style>
<path class="st0" d="M240.26,348.15c-0.96-0.93-2.44-1.1-3.58-0.39c-3.52,2.11-7.56,3.19-11.66,3.11
	c-12.31-0.19-22.02-10.62-22.02-22.93v-10.45l-0.12-0.02c-15.94-4.51-25.2-21.09-20.69-37.03c2.06-7.26,6.77-13.48,13.21-17.42
	c-10.2-6.04-13.57-19.2-7.53-29.4c2.78-4.69,7.24-8.15,12.48-9.67c-1.4-3.5-2.12-7.23-2.11-11c0.01-16.54,13.42-29.94,29.96-29.94
	c0.01,0,0.03,0,0.04,0h0.15c8.02,0.09,14.74-6.06,15.37-14.06l0.23-3.25c-6.18-8.3-17.91-10.02-26.21-3.84
	c-7.6,5.65-9.78,16.09-5.08,24.31l-0.18,0.33c-14.58-7.88-32.79-2.46-40.67,12.12c-4.22,7.8-4.77,17.08-1.5,25.33
	c-2.1,0.61-4.1,1.53-5.92,2.75c-9.86,6.56-12.55,19.87-5.99,29.73c0,0,0,0,0,0c1.78,2.7,4.15,4.95,6.93,6.59
	c-14.14,8.61-18.62,27.04-10.01,41.18c3.95,6.48,10.2,11.22,17.51,13.27l0.12,0.02v10.45c0,12.28,9.65,22.7,21.93,22.94
	c4.92,0.1,9.74-1.43,13.69-4.36C216.92,355.65,231.05,356.38,240.26,348.15L240.26,348.15z"/>
<path class="st1" d="M90.98,388.55l17.44-10.97c2.81-1.76,3.65-5.47,1.89-8.27c-0.85-1.35-2.2-2.3-3.75-2.66l-39-8.88
	c-3.23-0.74-6.45,1.29-7.18,4.52c0,0,0,0,0,0l-8.89,39c-0.74,3.23,1.29,6.45,4.52,7.18c1.55,0.35,3.18,0.08,4.53-0.77l20.17-12.68
	c19.32,22.79,43.34,41.15,70.4,53.81c3.01,1.38,6.57,0.06,7.95-2.96c1.37-2.99,0.08-6.52-2.89-7.92
	C131.2,426.26,108.98,409.43,90.98,388.55L90.98,388.55z M66.41,389.83l4.33-19.03l19.03,4.33L66.41,389.83z"/>
<path class="st1" d="M460.32,348.78c-2.89-1.63-6.55-0.6-8.17,2.28c-15.3,27.08-36.84,50.13-62.83,67.22l-14.5-18.73
	c-2.03-2.62-5.79-3.11-8.42-1.08c-1.26,0.97-2.08,2.41-2.28,3.99l-5.06,39.68c-0.42,3.29,1.91,6.29,5.19,6.71c0,0,0,0,0,0
	l39.68,5.06c0.25,0.03,0.51,0.05,0.76,0.05c3.31,0,6-2.69,6-6c0-1.33-0.44-2.62-1.25-3.67l-12.77-16.5
	c27.25-18.09,49.84-42.36,65.93-70.84C464.22,354.07,463.21,350.41,460.32,348.78L460.32,348.78z M371.73,437.71l2.47-19.36
	l16.89,21.83L371.73,437.71z"/>
<path class="st1" d="M256,127h0.19c33.97-0.05,61.46-27.63,61.41-61.59S289.98,3.95,256.01,4h-0.19
	c-33.97,0.05-61.46,27.63-61.41,61.59S222.03,127.05,256,127L256,127L256,127z M279,109.19c-7.01,3.81-14.87,5.81-22.85,5.81H256
	c-8.03,0.04-15.94-1.95-23-5.78V97.13c-0.15-7.1,5.48-12.97,12.58-13.13c0.08,0,0.17,0,0.25,0h20.35
	c7.1,0.01,12.84,5.78,12.83,12.88c0,0.08,0,0.17,0,0.25L279,109.19z M245,54.09v-4.8c0-6.08,4.92-11,11-11s11,4.92,11,11l0,0v4.8
	c0,6.08-4.92,11-11,11S245,60.16,245,54.09z M255.85,16H256c27.26-0.01,49.37,22.08,49.38,49.34c0.01,13.06-5.17,25.6-14.38,34.85
	v-3.06c0.01-12.26-8.82-22.74-20.9-24.82c5.6-4.39,8.88-11.11,8.9-18.22v-4.8c0-12.7-10.3-23-23-23s-23,10.3-23,23v4.8
	c0.02,7.12,3.3,13.83,8.9,18.22c-12.08,2.08-20.91,12.56-20.9,24.82v3.09c-19.24-19.33-19.17-50.59,0.16-69.83
	C230.37,21.21,242.84,16.04,255.85,16z"/>
<path class="st1" d="M256,508h0.19c33.97-0.05,61.46-27.63,61.41-61.59s-27.63-61.46-61.59-61.41h-0.19
	c-33.97,0.05-61.46,27.63-61.41,61.59S222.03,508.05,256,508L256,508z M279,490.15c-7.01,3.82-14.86,5.84-22.85,5.87
	c-8.09,0.07-16.06-1.93-23.15-5.82V478c-0.14-7.04,5.46-12.86,12.5-13c0.11,0,0.22,0,0.33,0h20.35c7.04-0.04,12.78,5.63,12.83,12.67
	c0,0.11,0,0.22,0,0.33L279,490.15z M245,434.96v-4.8c0-6.08,4.92-11,11-11s11,4.92,11,11v4.8c0,6.08-4.92,11-11,11
	S245,441.04,245,434.96z M255.85,397H256c27.24-0.03,49.35,22.03,49.38,49.27c0.02,13.07-5.16,25.62-14.38,34.87V478
	c0.01-12.26-8.82-22.74-20.9-24.82c5.6-4.39,8.88-11.11,8.9-18.22v-4.8c0-12.7-10.3-23-23-23s-23,10.3-23,23v4.8
	c0.02,7.12,3.3,13.83,8.9,18.22c-12.08,2.08-20.91,12.56-20.9,24.82v3.18c-19.24-19.31-19.17-50.57,0.14-69.8
	C230.36,402.2,242.84,397.03,255.85,397L255.85,397z"/>
<path class="st1" d="M446.44,194h-0.19c-33.94,1-61.48,28.24-61.38,62.19c0.1,33.88,27.7,61.81,61.56,61.81h0.19
	c33.94-1,61.48-28.24,61.38-62.19C507.9,221.93,480.3,194,446.44,194z M470,299.63c-7.21,3.89-15.22,6.07-23.41,6.37h-0.15
	c-8.19,0-16.24-2.05-23.44-5.96v-12.47c0.02-7.37,5.9-13.39,13.27-13.57h20.35c7.39,0.17,13.31,6.17,13.39,13.57L470,299.63z
	 M435,244.52v-4.8c0-6.35,5.15-11.5,11.5-11.5s11.5,5.15,11.5,11.5l0,0v4.8c0,6.35-5.15,11.5-11.5,11.5
	C440.15,256.02,435,250.88,435,244.52z M482,290.57v-3c0.01-12.26-8.82-22.74-20.9-24.82c5.6-4.39,8.88-11.11,8.9-18.22v-4.8
	c0-12.98-10.52-23.5-23.5-23.5s-23.5,10.52-23.5,23.5v4.8c0.02,7.12,3.3,13.83,8.9,18.22c-12.08,2.08-20.91,12.56-20.9,24.82v3.33
	c-9.15-9.24-14.25-21.75-14.17-34.75c-0.08-27.33,22.12-49.15,49.45-50.15h0.15c27.26,0,49.58,22.57,49.66,49.85
	C496.27,268.85,491.19,281.37,482,290.57z"/>
<path class="st1" d="M65.56,318h0.19c33.94-1,61.48-28.24,61.38-62.19c-0.1-33.88-27.7-61.81-61.56-61.81h-0.19
	C31.43,195,3.9,222.24,4,256.19C4.1,290.07,31.7,318,65.56,318z M89,299.63c-7.17,3.89-15.14,6.07-23.29,6.37h-0.15
	c-8.23,0-16.32-2.05-23.56-5.96v-12.47c0.08-7.39,6-13.39,13.39-13.57h20.35c7.37,0.18,13.25,6.2,13.26,13.57V299.63z M54,244.52
	v-4.8c0-6.35,5.15-11.5,11.5-11.5s11.5,5.15,11.5,11.5l0,0v4.8c0,6.35-5.15,11.5-11.5,11.5S54,250.88,54,244.52z M65.41,206h0.15
	c27.26,0,49.52,22.57,49.6,49.85c0.15,13.01-4.96,25.53-14.16,34.72v-3c0.01-12.26-8.82-22.74-20.9-24.82
	c5.6-4.39,8.88-11.11,8.9-18.23v-4.8c0-12.98-10.52-23.5-23.5-23.5S42,226.75,42,239.72v4.8c0.02,7.12,3.3,13.83,8.9,18.22
	c-12.08,2.08-20.91,12.56-20.9,24.82v3.33c-9.13-9.25-14.2-21.75-14.1-34.75C15.81,228.82,38.08,207,65.41,206L65.41,206z"/>
<path class="st1" d="M355.83,74.05c24.97,11.69,47.18,28.52,65.19,49.4l-17.44,10.97c-2.81,1.76-3.65,5.47-1.89,8.27
	c0.85,1.35,2.2,2.3,3.75,2.66l39,8.88c3.23,0.74,6.45-1.29,7.18-4.52c0,0,0,0,0,0l8.89-39c0.74-3.23-1.29-6.45-4.52-7.18
	c-1.55-0.35-3.18-0.08-4.53,0.77l-20.17,12.68c-19.32-22.79-43.34-41.15-70.4-53.81c-3.01-1.38-6.57-0.06-7.95,2.96
	C351.58,69.12,352.87,72.65,355.83,74.05L355.83,74.05z M445.59,122.17l-4.33,19.03l-19.03-4.34L445.59,122.17z"/>
<path class="st1" d="M51.68,163.22c2.88,1.63,6.54,0.61,8.17-2.27c0,0,0-0.01,0-0.01c15.3-27.08,36.84-50.13,62.83-67.22l14.5,18.73
	c2.03,2.62,5.79,3.11,8.42,1.08c1.26-0.97,2.08-2.41,2.28-3.99l5.06-39.68c0.42-3.29-1.91-6.29-5.19-6.71c0,0,0,0,0,0l-39.68-5.06
	c-3.29-0.42-6.29,1.91-6.71,5.2c-0.2,1.58,0.23,3.17,1.21,4.43l12.77,16.5c-27.25,18.09-49.84,42.36-65.93,70.84
	C47.78,157.93,48.8,161.59,51.68,163.22L51.68,163.22z M140.27,74.29l-2.47,19.36l-16.89-21.83L140.27,74.29z"/>
<g>
	<path class="st2" d="M358.55,259.74c8.37-12.63,4.94-29.65-7.67-38.05c-0.64-0.42-1.29-0.81-1.96-1.18
		c4.21-19.44-8.13-38.61-27.57-42.82c-4.48-0.97-9.1-1.08-13.62-0.31c0-0.17,0.02-0.33,0.02-0.5c0-13.74-11.14-24.88-24.88-24.88
		c-13.74,0-24.88,11.14-24.88,24.88v154.5c0.07,15.81,12.94,28.57,28.75,28.5c6.28-0.03,12.37-2.12,17.34-5.94
		c3.88,1.94,8.16,2.95,12.5,2.95c15.71-0.02,28.43-12.78,28.41-28.49c0,0,0-0.01,0-0.01v-6.7c18.3-7.82,26.79-28.98,18.98-47.28
		c-1.84-4.32-4.51-8.23-7.86-11.52C357,261.89,357.81,260.84,358.55,259.74L358.55,259.74z M331,312.62c-3.31,0-6,2.69-6,6
		c-0.06,3.26,2.54,5.94,5.8,6c0.03,0,0.05,0,0.08,0c0.71,0.01,1.42-0.01,2.12-0.08v3.83c0,9.06-7.35,16.41-16.41,16.41
		s-16.41-7.35-16.41-16.41c0-3.3-2.68-5.98-5.98-5.98c-3.3,0-5.98,2.68-5.98,5.98c0,6.39,2.16,12.6,6.12,17.61
		c-2.39,1.23-5.04,1.88-7.74,1.89c-9.13,0-16.55-7.37-16.62-16.5v-154.5c0.01-7.09,5.76-12.84,12.86-12.83
		c7.08,0.01,12.82,5.75,12.83,12.83c0,1.96-0.45,3.88-1.31,5.64c-0.69,0.44-1.35,0.9-2.02,1.39c-2.67,1.97-3.23,5.73-1.26,8.4
		c1.97,2.67,5.73,3.23,8.4,1.26c10.68-7.86,25.71-5.58,33.57,5.09c5.65,7.68,6.23,17.97,1.47,26.23c-1.66,2.86-0.69,6.53,2.17,8.19
		c2.52,1.47,5.73,0.91,7.6-1.33c7.07,4.74,8.96,14.32,4.22,21.39c-0.69,1.04-1.51,1.98-2.44,2.82c-4.73-2.2-9.88-3.33-15.1-3.33
		c-3.31,0-6,2.69-6,6c0,3.31,2.69,6,6,6c13.25,0,24,10.75,24,24S344.25,312.62,331,312.62L331,312.62z"/>
	<path class="st2" d="M295.94,273.78c0.41,1.21,0.53,2.5,0.36,3.76c-0.43,3.29,1.88,6.3,5.16,6.73c0,0,0,0,0,0
		c0.26,0.03,0.53,0.05,0.79,0.05c3.01,0,5.55-2.23,5.94-5.22c1.12-8.54-3.23-16.87-10.88-20.84c-0.77-2.65-0.2-5.51,1.52-7.66
		c2.02-2.63,1.52-6.4-1.11-8.41c-2.55-1.96-6.19-1.55-8.25,0.91c-2.97,3.7-4.56,8.32-4.48,13.06c-3.29,0.45-6.42,1.71-9.12,3.65
		c-2.72,1.9-3.38,5.64-1.48,8.36c1.9,2.72,5.64,3.38,8.36,1.48c0.05-0.03,0.09-0.06,0.14-0.1c0.7-0.51,1.48-0.9,2.3-1.17
		C289.66,266.92,294.47,269.33,295.94,273.78L295.94,273.78z"/>
	<path class="st2" d="M319.22,248.7c2.32,2.37,6.11,2.42,8.48,0.1c0,0,0,0,0,0c0.74-0.73,1.42-1.52,2.02-2.37
		c0.36,0.07,0.73,0.11,1.11,0.11c3.31,0.01,6.01-2.67,6.02-5.98c0.01-2.31-1.31-4.41-3.38-5.42c-2.25-1.11-3.41-3.64-2.79-6.06
		c0.82-3.21-1.11-6.48-4.32-7.3s-6.48,1.11-7.3,4.32c-1.06,4.14-0.54,8.53,1.46,12.32c-0.27,0.68-0.67,1.29-1.19,1.81
		C316.95,242.53,316.9,246.33,319.22,248.7C319.22,248.7,319.22,248.7,319.22,248.7L319.22,248.7z"/>
	<path class="st2" d="M285.61,214.89c0.93,0.34,1.89,0.59,2.87,0.76c0.05,0.65,0.14,1.29,0.27,1.92c0.35,1.73,0.96,3.39,1.81,4.93
		c1.57,2.92,5.21,4.01,8.13,2.44s4.01-5.21,2.44-8.13c-0.02-0.03-0.04-0.07-0.06-0.1c-1.41-2.56-0.48-5.78,2.08-7.19
		c0.47-0.26,0.98-0.45,1.51-0.55c0.78-0.16,1.58-0.14,2.35,0.06c3.21,0.83,6.48-1.09,7.32-4.3c0.83-3.21-1.09-6.48-4.3-7.32
		c-0.01,0-0.03-0.01-0.04-0.01c-6.82-1.75-14.02,0.82-18.19,6.5c-1.53,0.09-3.02-0.49-4.1-1.58c-2.32-2.37-6.12-2.41-8.48-0.09
		c-2.37,2.32-2.41,6.12-0.09,8.49l0,0C280.94,212.59,283.16,214.01,285.61,214.89L285.61,214.89z"/>
	<path class="st2" d="M315.51,293.66c-2.2,2.2-3.95,4.82-5.13,7.7c-3.65,1.52-7.83,1.07-11.08-1.19c-2.72-1.9-6.46-1.24-8.36,1.48
		c-1.9,2.72-1.24,6.46,1.48,8.36c3.97,2.77,8.69,4.25,13.52,4.25c0.98,0,1.96-0.07,2.94-0.19c0.66,4.16,2.42,8.06,5.1,11.31
		c2.11,2.56,5.89,2.92,8.45,0.81s2.92-5.89,0.81-8.45c-2.38-2.9-3.22-6.76-2.25-10.38c0.03-0.08,0.05-0.17,0.07-0.25
		c0.55-1.87,1.56-3.57,2.94-4.95c2.34-2.34,2.35-6.14,0.01-8.49S317.86,291.32,315.51,293.66L315.51,293.66z"/>
	<path class="st2" d="M167,321.68v6.7c-0.04,15.7,12.65,28.46,28.35,28.5c0.01,0,0.02,0,0.02,0c4.35,0,8.64-1,12.54-2.95
		c12.53,9.65,30.5,7.31,40.14-5.22c3.83-4.97,5.92-11.07,5.94-17.34v-154.5c0-13.72-11.12-24.84-24.84-24.84
		c-13.72,0-24.84,11.12-24.84,24.84c0,0.17-0.02,0.33-0.01,0.5c-1.99-0.33-4.01-0.5-6.03-0.5c-19.86-0.03-35.98,16.05-36.01,35.91
		c0,2.6,0.27,5.18,0.83,7.72c-0.67,0.37-1.32,0.76-1.96,1.18c-12.62,8.36-16.07,25.37-7.71,38c0.74,1.12,1.57,2.19,2.47,3.19
		c-14.18,13.96-14.36,36.76-0.41,50.95C158.77,317.16,162.68,319.83,167,321.68z M181,252.62c-5.22,0-10.37,1.13-15.1,3.33
		c-6.3-5.73-6.77-15.48-1.04-21.78c0.84-0.92,1.79-1.74,2.83-2.44c2.13,2.53,5.91,2.86,8.45,0.73c2.23-1.87,2.79-5.08,1.33-7.6
		c-6.63-11.48-2.71-26.16,8.76-32.79c8.27-4.78,18.58-4.2,26.27,1.47c2.67,1.97,6.42,1.4,8.39-1.26c1.97-2.67,1.4-6.42-1.26-8.39
		l0,0c-0.66-0.49-1.34-0.95-2.03-1.39c-0.87-1.75-1.33-3.68-1.34-5.64c0.09-7.11,5.92-12.8,13.04-12.71
		c6.99,0.09,12.63,5.73,12.71,12.71v154.5c-0.06,9.17-7.55,16.56-16.72,16.5c-2.64-0.02-5.24-0.66-7.58-1.89
		c3.96-5.02,6.1-11.22,6.09-17.61c-0.04-3.32-2.77-5.98-6.09-5.93c-3.26,0.04-5.89,2.67-5.93,5.93c0,9.05-7.32,16.38-16.37,16.39
		s-16.38-7.32-16.39-16.37c0-0.01,0-0.01,0-0.02v-3.83c0.71,0.07,1.42,0.09,2.12,0.08c3.28-0.01,5.94-2.67,5.94-5.96
		c0-0.01,0-0.03,0-0.04c-0.01-3.32-2.71-6-6.03-6c-13.25,0.01-24.01-10.73-24.01-23.99c-0.01-13.25,10.73-24.01,23.99-24.01l0,0
		c3.31,0,6-2.69,6-6C187.01,255.31,184.32,252.62,181,252.62L181,252.62L181,252.62z"/>
	<path class="st2" d="M226.99,256.17c0.08-4.74-1.51-9.36-4.48-13.06c-2.13-2.54-5.91-2.88-8.45-0.75c-2.47,2.06-2.87,5.7-0.91,8.25
		c1.72,2.16,2.29,5.01,1.52,7.67c-7.65,3.97-12,12.3-10.88,20.85c0.39,2.98,2.93,5.21,5.94,5.22c0.26,0,0.53-0.02,0.79-0.05
		c3.29-0.43,5.6-3.45,5.16-6.73c0,0,0,0,0,0c-0.61-4.66,2.68-8.92,7.33-9.52c1.27-0.16,2.55-0.04,3.77,0.36
		c0.82,0.27,1.6,0.67,2.31,1.17c2.66,1.97,6.42,1.42,8.39-1.24c1.97-2.66,1.42-6.42-1.24-8.39c-0.05-0.03-0.09-0.07-0.14-0.1
		c-1.7-1.22-3.57-2.17-5.55-2.83C229.4,256.61,228.21,256.33,226.99,256.17L226.99,256.17z"/>
	<path class="st2" d="M192.78,248.7c2.31-2.37,2.27-6.17-0.1-8.48c-0.52-0.51-0.92-1.13-1.19-1.81c1.99-3.78,2.51-8.17,1.46-12.32
		c-0.82-3.21-4.1-5.14-7.3-4.32c-3.21,0.82-5.14,4.1-4.32,7.3c0.62,2.43-0.55,4.96-2.79,6.06c-2.98,1.44-4.23,5.03-2.78,8.02
		c1.01,2.08,3.11,3.39,5.42,3.38c0.37,0,0.74-0.04,1.1-0.11c0.61,0.85,1.29,1.64,2.04,2.37
		C186.67,251.12,190.47,251.07,192.78,248.7C192.78,248.7,192.78,248.7,192.78,248.7L192.78,248.7z"/>
	<path class="st2" d="M204.99,209.04c2.84-0.71,5.72,1.01,6.43,3.85c0.32,1.29,0.15,2.66-0.49,3.83c-1.63,2.89-0.61,6.55,2.28,8.17
		s6.55,0.61,8.17-2.28c0.02-0.03,0.04-0.07,0.06-0.1c0.85-1.54,1.46-3.21,1.81-4.93c0.12-0.64,0.21-1.28,0.27-1.92
		c0.98-0.17,1.94-0.43,2.87-0.76c2.45-0.88,4.67-2.3,6.49-4.16c2.32-2.37,2.28-6.17-0.09-8.49s-6.17-2.28-8.49,0.09l0,0
		c-1.08,1.09-2.57,1.67-4.1,1.58c-4.17-5.68-11.37-8.25-18.19-6.5c-3.21,0.81-5.16,4.08-4.34,7.29c0.81,3.21,4.08,5.16,7.29,4.34
		C204.97,209.04,204.98,209.04,204.99,209.04L204.99,209.04z"/>
	<path class="st2" d="M190.95,307.1c0.02,0.08,0.04,0.17,0.07,0.25c0.97,3.62,0.13,7.49-2.25,10.38c-2.11,2.56-1.74,6.34,0.81,8.45
		s6.34,1.74,8.45-0.81c2.67-3.25,4.43-7.15,5.1-11.31c2.23,0.29,4.49,0.25,6.72-0.11c3.51-0.56,6.84-1.91,9.75-3.95
		c2.72-1.89,3.4-5.62,1.52-8.35c-1.89-2.72-5.62-3.4-8.35-1.52c-0.02,0.01-0.03,0.02-0.05,0.03c-3.25,2.26-7.42,2.72-11.08,1.19
		c-1.19-2.88-2.93-5.5-5.13-7.7c-2.34-2.34-6.14-2.34-8.49,0.01c-2.34,2.34-2.34,6.14,0.01,8.49
		C189.39,303.53,190.4,305.23,190.95,307.1L190.95,307.1z"/>
	<path class="st2" d="M192.15,167.23c0.24,0,0.47-0.01,0.71-0.04c1.79-0.21,3.6-0.31,5.4-0.31c3.31,0,6-2.69,6-6s-2.69-6-6-6
		c-2.27,0-4.54,0.13-6.79,0.4c-3.29,0.39-5.65,3.37-5.26,6.66C186.56,164.95,189.11,167.23,192.15,167.23L192.15,167.23z"/>
	<path class="st2" d="M152.25,212.88c-0.03-17.37,9.76-33.27,25.28-41.06c2.99-1.43,4.25-5.02,2.81-8.01
		c-1.43-2.99-5.02-4.25-8.01-2.81c-0.08,0.04-0.16,0.08-0.23,0.12c-19.57,9.83-31.9,29.87-31.85,51.77c0,3.31,2.69,6,6,6
		S152.25,216.19,152.25,212.88L152.25,212.88z"/>
</g>
</svg>
