<?xml version="1.0" encoding="utf-8"?>
<!-- Generator: Adobe Illustrator 25.2.1, SVG Export Plug-In . SVG Version: 6.00 Build 0)  -->
<svg version="1.1" id="Layer_1" xmlns="http://www.w3.org/2000/svg" xmlns:xlink="http://www.w3.org/1999/xlink" x="0px" y="0px"
	 viewBox="0 0 512 512" style="enable-background:new 0 0 512 512;" xml:space="preserve">
<style type="text/css">
	.st0{fill:#D4E1F4;}
	.st1{fill:#E20613;}
	.st2{fill:#1C2226;}
</style>
<path class="st0" d="M77.6,316.4c0.5-0.2,1-0.4,1.5-0.6l-1-7.8c-10.3,2.1-20.5,4.8-30.5,8.3l-6.5,2.3c-11.4,3.8-20.6,12.2-25.6,23.1
	c-0.2,0.5-0.4,1-0.6,1.5c-2,5.1-3,10.5-2.9,15.9V436h30v-76.9c0-5.4,0.9-10.8,2.9-15.9l0.6-1.5c5-10.9,14.2-19.3,25.6-23.1
	L77.6,316.4z"/>
<path class="st0" d="M100.5,241l-1.4-61.4c-10.6,5.4-23.3,16.1-30.2,37.2v0.2h-0.5c-5.3-1.2-10.6,2.1-12,7.3
	c-0.3,1.1-0.4,2.2-0.4,3.3c0,7.4,6,13.3,13.4,13.4h0.9c1.2,29.1,25.8,51.7,54.9,50.5c4.3-0.2,8.6-0.9,12.7-2.1
	C116.5,283,101.4,263.5,100.5,241z"/>
<path class="st1" d="M321.5,72.5c-64.6,0-124.5,33.6-158.2,88.6l10.2,6.3c4.5-7.3,9.5-14.2,14.9-20.7c11.2,11.5,23.9,21.4,37.7,29.6
	c-7.9,23-12.4,48.5-13,75.7H172v12h41.1c1.5,71.3,29.7,130.7,77.1,164.7c-19-3.4-37.2-10-54-19.5l-5.9,10.4
	c27.8,15.7,59.2,23.9,91.2,23.9C423.8,443.5,507,360.3,507,258S423.8,72.5,321.5,72.5z M196.4,137.7c25.2-26.3,58-43.9,93.8-50.4
	c-26.3,18.8-46.7,45.4-59.9,77.6C217.9,157.3,206.5,148.2,196.4,137.7L196.4,137.7z M315,430.1c-33-17.4-59.3-47.1-74.5-84.9
	c23.1-11.9,48.6-18.5,74.5-19.4V430.1z M315,313.8c-27.3,0.9-54.1,7.8-78.5,20.1c-7.1-21.2-10.9-44.7-11.4-69.8H315V313.8z M315,252
	h-89.9c0.6-25.1,4.3-48.6,11.4-69.8c24.4,12.3,51.2,19.1,78.5,20.1V252z M315,190.2c-26-0.9-51.4-7.5-74.5-19.4
	C255.7,133,282,103.4,315,85.9V190.2z M446,137.3c-10,10.5-21.3,19.6-33.6,27.2c-13.2-32-33.5-58.5-59.8-77.2
	C388.2,93.8,420.9,111.3,446,137.3z M327,85.9c34,17.4,59.2,47,74.4,84.6c-23,12.2-48.4,18.9-74.4,19.7V85.9z M327,202.2
	c27.5-0.8,54.4-7.8,78.9-20.4c7.5,22.6,11.6,46.3,12,70.1H327V202.2z M327,264h90.9c-0.4,23.8-4.5,47.5-12,70.1
	c-24.4-12.6-51.4-19.5-78.9-20.4V264z M327,325.8c26,0.8,51.4,7.5,74.4,19.7c-15.2,37.6-40.4,67.2-74.4,84.6V325.8z M352.7,428.7
	c26.2-18.8,46.6-45.3,59.8-77.2c12.3,7.6,23.6,16.7,33.6,27.2C420.9,404.7,388.2,422.2,352.7,428.7z M454.1,369.8
	c-11.1-11.5-23.6-21.5-37.3-29.7c8-23.1,12.5-48.7,13.1-76.1h65C493.6,302.8,479.2,340.1,454.1,369.8L454.1,369.8z M494.9,252h-65
	c-0.6-27.4-5.1-53-13.1-76.1c13.7-8.2,26.2-18.2,37.3-29.7C479.2,175.9,493.6,213.2,494.9,252L494.9,252z"/>
<g>
	<g>
		<path class="st2" d="M8.7,340C8.8,339.5,8.5,340.5,8.7,340z"/>
		<path class="st2" d="M235.8,340.9C235.6,340.3,236,341.4,235.8,340.9c-5.6-12.4-16.7-23.5-29.7-27.9l-6.3-2.2
			c-14.2-4.9-28.9-8.5-43.8-10.6V287c2-1.6,4.2-3.3,6.2-5.2c10.1-9.3,16.5-21.9,18.2-35.6c10.4-2.6,16.7-13.1,14.1-23.4
			c-1.5-5.8-6-10.3-11.8-11.7l0.9-13.6c1.1-15.3-3.6-30.4-13.1-42.3c-2.9-3.6-6.3-6.9-10-9.7c-1.6-20.1-18.5-36.4-38.2-36.4
			c-10.3,0-20.1,4.2-27.3,11.7c-6.4,6.6-10.4,15.2-11.1,24.4c-15.9,12.6-24.6,32.2-23.3,52.4l1,13.7c-5.8,1.4-10.4,5.9-11.8,11.7
			c-1.6,6.6,0.3,13.6,5.2,18.3c2.5,2.5,5.7,4.2,9.2,5.1c2,16.6,10.8,31.3,24.8,40.5v13.2c-15.1,2.1-29.9,5.7-44.3,10.6l-6.6,2.2
			c-12.9,4.4-23.8,14.8-29.4,27.1C6.5,345.9,5,352.8,5,359v76.5c0,3.3,2.7,6.5,6,6.5h222.2c3.3,0,5.8-3.2,5.8-6.5v-76.4
			C239.1,352.9,238,346.7,235.8,340.9L235.8,340.9z M160.5,313l-4.7,36.1l-23-10.5l13.7-13.2c3.8-3.7,6.6-8.3,8-13.5
			C156.5,312.4,158.5,312.7,160.5,313z M122.5,346.8l11.9,5.4l-3.3,11.6l-16.1-0.3l-2.9-11.3L122.5,346.8z M106.3,316.9
			c-3.4-3.3-5.3-7.9-5.3-12.6v-10.9c6.1,2.4,12.5,3.8,19,4h2.4c7.4,0,14.7-1.4,21.5-4v10.8c-0.1,4.8-2.1,9.4-5.6,12.6l-16.1,15.3
			L106.3,316.9z M103.6,129c4.9-5.1,11.6-8,18.7-8c10.2,0,19.2,6.3,23.6,15.4c-17.8-8.2-36.3-3.7-47.9,1
			C99.3,134.3,101.2,131.4,103.6,129z M143.1,148.3c7.9,4.3,13.8,8.9,18,14.2c7.7,9.6,11.4,21.8,10.6,34l-0.9,12.6
			c-10.3-4.4-13.4-16-13.5-16.5c-0.6-2.5-2.8-4.4-5.5-4.5c-39-2.4-47.3-12.2-54.9-37.1C105.2,146.8,125.4,138.8,143.1,148.3
			L143.1,148.3z M86.7,158.5c1.8,5.7,4.2,11.3,7.2,16.5c-8.5,4.6-15.9,11.1-21.5,19C72.3,180.8,77.4,168,86.7,158.5z M75.5,240.7
			c-0.1-3.2-2.8-5.7-6-5.7h-1c-4.1-0.1-7.3-3.4-7.3-7.5c0-0.6,0.1-1.2,0.2-1.8c0.6-2.2,2.8-3.4,5-2.9L68,223c1.7,0,3.3-0.7,4.4-2
			c0.7-0.8,1.2-1.7,1.4-2.7c6.2-19.3,17.9-29,27.8-33.8c0.5,0.5,1.1,1,1.7,1.5c9.4,7.9,22.7,12.1,43.8,13.8c2.9,7.1,10.7,21,28.2,23
			h2.6c2.2-0.5,4.3,0.8,4.9,3c0.5,1.9,0.2,3.9-0.9,5.5c-1.4,2.2-3.7,3.6-6.3,3.7h-0.9c-3.2-0.1-5.9,2.5-6,5.7
			c-1,25.7-22.6,45.8-48.3,44.8C96,284.5,76.5,265,75.5,240.7z M89.8,312.1c1.4,5.1,4.2,9.8,8,13.5l13.7,13.2l-23.1,10.5L83.8,313
			C85.8,312.7,87.8,312.4,89.8,312.1L89.8,312.1z M93.3,430H53.4c0-0.5,0-1.1-0.1-1.6c-2.8-13.2-1.4-26.9,3.9-39.3
			c1.3-3,0-6.5-3.1-7.9c-3-1.3-6.5,0-7.9,3.1c0,0.1-0.1,0.2-0.1,0.3c-6.1,14.3-7.8,30.1-4.8,45.4H17v-71c0-4.7,1-9.9,2.8-14.2
			c4.3-9.4,12.5-17.1,22.2-20.4l6.5-2.2c7.7-2.7,15.5-4.9,23.4-6.7l5.7,43.4c0.4,3.3,3.4,5.6,6.7,5.2c0.6-0.1,1.2-0.2,1.7-0.5
			l14.9-6.7l3.2,13.2L93.3,430z M105.5,430l9.8-54.3l15,0.4l7.5,53.9H105.5z M227,430h-23.6c3-15.3,1.3-31.1-4.8-45.4
			c-1.3-3.1-4.8-4.5-7.9-3.3c-3,1.3-4.5,4.7-3.2,7.8v0.1c5.3,12.4,6.6,26,3.9,39.2c-0.1,0.6-0.2,1.2-0.1,1.8h-41.5l-8.3-59.4
			l3.8-12.8l12.8,5.7c3.1,1.3,6.6,0,8-3.1c0.2-0.5,0.4-1.1,0.5-1.6l5.7-43.4c7.9,1.8,15.8,4,23.4,6.7l6.5,2.2
			c9.8,3.3,17.9,11,22.2,20.4c0.2,0.4-0.2-0.4,0,0c1.6,4.4,2.7,9.7,2.6,14.3L227,430z"/>
		<path class="st2" d="M19.8,344.8C19.8,344.7,19.9,344.6,19.8,344.8z"/>
	</g>
	<path class="st2" d="M31,351.9c-3.3,0-6,2.7-6,6v4.6c0,3.3,2.7,6,6,6s6-2.7,6-6v-4.6C37,354.6,34.3,351.9,31,351.9z"/>
	<path class="st2" d="M31,373.5c-3.3,0-6,2.7-6,6v39.2c0,3.3,2.7,6,6,6s6-2.7,6-6v-39.2C37,376.1,34.3,373.5,31,373.5z"/>
</g>
</svg>
