<?xml version="1.0" encoding="utf-8"?>
<!-- Generator: Adobe Illustrator 25.2.1, SVG Export Plug-In . SVG Version: 6.00 Build 0)  -->
<svg version="1.1" id="Layer_1" xmlns="http://www.w3.org/2000/svg" xmlns:xlink="http://www.w3.org/1999/xlink" x="0px" y="0px"
	 viewBox="0 0 512 512" style="enable-background:new 0 0 512 512;" xml:space="preserve">
<style type="text/css">
	.st0{fill:#D4E1F4;}
	.st1{fill:#1C2226;}
	.st2{fill:#E20613;}
</style>
<path class="st0" d="M122.84,154.77c-2.5,5.29-7.79,8.72-13.64,8.84l-0.2,0.43v173.08c8.19-0.1,14.91,6.45,15.01,14.63
	c0,0.18,0,0.35,0,0.53c0.04,2.12-0.37,4.22-1.2,6.17l0.2,0.07l15.99,6.15V161.05l-16-6.21L122.84,154.77z"/>
<path class="st1" d="M424.33,149.4c-0.05-11.74-9.62-21.22-21.36-21.17c-7.07,0.03-13.67,3.58-17.59,9.47l-108.22-35
	c0.01-0.24,0.02-0.47,0.02-0.71c-0.01-11.69-9.49-21.17-21.19-21.16c-11.68,0.01-21.15,9.48-21.16,21.16c0,0.24,0.03,0.47,0.04,0.71
	l-107.71,34.84c-3.82-6.36-10.69-10.25-18.11-10.26c-11.73,0-21.27,9.44-21.38,21.17c-0.1,9.48,6.19,17.85,15.33,20.39V331.9
	c-9.14,2.54-15.43,10.9-15.33,20.39c0.05,11.74,9.62,21.22,21.36,21.17c6.27-0.03,12.21-2.82,16.23-7.64l109.6,42.26
	c-0.02,0.36-0.04,0.72-0.04,1.09c0,11.69,9.48,21.17,21.17,21.17c11.69,0,21.17-9.48,21.17-21.17c0-0.37-0.04-0.73-0.05-1.1
	l108.86-42.25c3.98,5.39,10.28,8.57,16.98,8.58c11.73,0,21.27-9.44,21.38-21.17c0.1-9.48-6.19-17.85-15.33-20.39V169.78
	C418.14,167.24,424.42,158.88,424.33,149.4z M397,242.41l-55,21.32v-84.11l44.6-17.32c2.61,3.38,5.4,5.96,10.4,7.28V242.41z
	 M239.17,193.49l-45.43-17.63l66.76-23.24l58.96,22.74l-46.63,18.12c-7.02-9.29-20.24-11.14-29.54-4.12
	C241.74,190.55,240.35,191.93,239.17,193.49L239.17,193.49z M115,168.63c3.83-1.17,7.23-3.43,9.79-6.51L170,179.66v84.07l-55-21.32
	V168.63z M130.03,151.13c0.08-0.65,0.13-1.3,0.15-1.97l66-21.35l46.99,18.12l-66.7,23.21L130.03,151.13z M256,197.11
	c5.06,0,9.17,4.11,9.17,9.17c0,5.06-4.11,9.17-9.17,9.17s-9.17-4.11-9.17-9.17C246.84,201.22,250.94,197.12,256,197.11z M262,226.57
	c8.99-2.67,15.15-10.92,15.17-20.29c0-0.53,0.14-1.05,0.1-1.57L330,184.28v84.1l-68,26.25V226.57z M402.95,140.23
	c5.06,0,9.17,4.11,9.17,9.17c0,5.06-4.11,9.17-9.17,9.17c-5.06,0-9.17-4.11-9.17-9.17C393.79,144.34,397.89,140.23,402.95,140.23z
	 M381.87,151.11l-45.8,17.8l-58.04-22.39l46.05-16.02l57.71,18.66c0,0.08-0.01,0.16-0.01,0.24
	C381.78,149.97,381.82,150.54,381.87,151.11L381.87,151.11z M256,92.82c5.06,0,9.17,4.11,9.17,9.17c0,5.06-4.11,9.17-9.17,9.17
	c-5.06,0-9.17-4.11-9.17-9.17C246.84,96.93,250.94,92.83,256,92.82z M256,123.16c6.92,0,13.4-3.39,17.35-9.07l31.81,10.29
	l-44.45,15.47l-46.38-17.89l24.33-7.87C242.6,119.77,249.08,123.16,256,123.16z M99.88,148.45c0-5.06,4.11-9.17,9.17-9.17
	s9.17,4.11,9.17,9.17c0,5.06-4.11,9.17-9.17,9.17C103.99,157.61,99.89,153.51,99.88,148.45z M109.05,361.45
	c-5.06,0-9.17-4.11-9.17-9.17s4.11-9.17,9.17-9.17c5.06,0,9.17,4.11,9.17,9.17C118.22,357.34,114.11,361.44,109.05,361.45
	L109.05,361.45z M115,332.1v-76.82l55,21.32v93.72l-40.12-15.55c0.06-0.83,0.08-1.67,0.04-2.5
	C130.03,342.97,123.93,334.73,115,332.1z M182,374.96v-93.7l11.63,4.44l4.25-11.19L182,268.39v-84.07l52.73,20.39
	c-0.04,0.52,0.01,1.04,0.01,1.57c0.05,9.39,6.25,17.63,15.26,20.29v68.07l-20.07-7.79l-4.34,11.19l24.41,9.47v81.36
	c-4.52,1.33-8.49,4.1-11.3,7.88L182,374.96z M256,418.34c-5.06,0-9.17-4.11-9.17-9.17S250.94,400,256,400
	c5.06,0,9.17,4.11,9.17,9.17C265.16,414.23,261.06,418.33,256,418.34L256,418.34z M262,388.88v-81.37l68-26.25v93.55l-56.71,21.94
	C270.48,392.97,266.52,390.2,262,388.88L262,388.88z M342,370.16v-93.55l55-21.32v77.76c-8.95,2.62-15.08,10.86-15.01,20.18
	c0,0.45,0.11,0.88,0.14,1.32L342,370.16z M412.12,353.23c0,5.06-4.1,9.17-9.17,9.17c-5.06,0-9.17-4.1-9.17-9.17
	c0-5.06,4.1-9.17,9.17-9.17c0,0,0,0,0,0C408.01,344.07,412.11,348.17,412.12,353.23L412.12,353.23z"/>
<path class="st1" d="M380.63,376.49l-2.86,1.13c-3.09,1.19-4.64,4.66-3.46,7.75s4.66,4.64,7.75,3.46c0.04-0.01,0.08-0.03,0.11-0.05
	l2.86-1.13c3.09-1.19,4.64-4.66,3.46-7.75s-4.66-4.64-7.75-3.46C380.7,376.46,380.67,376.48,380.63,376.49z"/>
<path class="st1" d="M357.98,385.44l-56.16,22.19c-3.09,1.19-4.64,4.66-3.46,7.75s4.66,4.64,7.75,3.46
	c0.04-0.01,0.08-0.03,0.11-0.05l56.17-22.19c3.08-1.22,4.59-4.7,3.38-7.79C364.56,385.73,361.07,384.22,357.98,385.44L357.98,385.44
	z"/>
<g>
	<path class="st2" d="M281.34,44.29c23.26,2.9,45.64,10.67,65.7,22.78l-24.6,14.26c-2.87,1.66-3.84,5.33-2.18,8.2
		c1.66,2.87,5.33,3.84,8.2,2.18l0,0l36.99-21.44c2.87-1.66,3.84-5.33,2.18-8.2c0,0,0,0,0-0.01l-21.49-36.99
		c-1.66-2.87-5.34-3.84-8.2-2.17c-2.87,1.66-3.84,5.34-2.17,8.2l13.6,23.4c-20.51-11.69-43.13-19.21-66.56-22.13
		c-3.29-0.43-6.3,1.89-6.72,5.18c-0.43,3.29,1.89,6.3,5.18,6.72C281.29,44.29,281.31,44.29,281.34,44.29L281.34,44.29z"/>
	<path class="st2" d="M237.47,44.79c0.29,0,0.58-0.02,0.87-0.06c6.49-0.94,13.04-1.48,19.6-1.62c3.31-0.07,5.94-2.81,5.87-6.13
		s-2.81-5.94-6.13-5.87c-7.05,0.15-14.09,0.73-21.07,1.75c-3.28,0.47-5.56,3.51-5.09,6.79C231.95,42.6,234.48,44.79,237.47,44.79
		L237.47,44.79z"/>
	<path class="st2" d="M149.57,86.98c1.51,0,2.96-0.57,4.07-1.59c10.39-9.62,21.99-17.83,34.52-24.42
		c6.35-3.33,12.93-6.21,19.68-8.64c3.13-1.1,4.77-4.52,3.68-7.65c-1.1-3.13-4.52-4.77-7.65-3.68c-0.03,0.01-0.06,0.02-0.09,0.03
		c-7.27,2.61-14.35,5.72-21.19,9.3c-13.46,7.08-25.93,15.9-37.1,26.24c-2.44,2.25-2.59,6.04-0.34,8.48
		C146.3,86.28,147.9,86.98,149.57,86.98L149.57,86.98z"/>
	<path class="st2" d="M230.66,467.71c-23.26-2.9-45.64-10.67-65.7-22.78l24.6-14.26c2.87-1.66,3.84-5.33,2.18-8.2
		c-1.66-2.87-5.33-3.84-8.2-2.18l-36.99,21.44c-2.87,1.66-3.84,5.33-2.18,8.2c0,0,0,0,0,0.01l21.49,36.99
		c1.66,2.87,5.34,3.84,8.2,2.17c2.87-1.66,3.84-5.34,2.17-8.2l-13.6-23.4c20.51,11.69,43.13,19.21,66.56,22.13
		c0.25,0.03,0.49,0.04,0.74,0.05c3.31,0,6-2.69,5.99-6.01C235.93,470.63,233.67,468.08,230.66,467.71L230.66,467.71z"/>
	<path class="st2" d="M273.66,467.27c-6.49,0.94-13.04,1.48-19.6,1.62c-3.31,0.03-5.97,2.75-5.94,6.06s2.75,5.97,6.06,5.94h0.13
		c7.05-0.15,14.09-0.73,21.08-1.75c3.28-0.5,5.53-3.55,5.03-6.83C279.93,469.07,276.92,466.82,273.66,467.27L273.66,467.27z"/>
	<path class="st2" d="M358.36,426.61c-10.39,9.62-21.99,17.83-34.52,24.42c-6.35,3.33-12.93,6.21-19.67,8.64
		c-3.13,1.1-4.77,4.52-3.68,7.65c1.1,3.13,4.52,4.77,7.65,3.68c0.03-0.01,0.06-0.02,0.09-0.03c7.27-2.61,14.35-5.72,21.19-9.3
		c13.46-7.08,25.94-15.9,37.1-26.23c2.44-2.25,2.59-6.04,0.34-8.48S360.8,424.36,358.36,426.61L358.36,426.61z"/>
	<path class="st2" d="M409,181.89v12.18c67.65,11.87,86,27.75,86,35.49c0,4.25-4.9,9.3-13.81,14.22
		c-10.36,5.73-25.48,11-44.92,15.66c-40.14,9.64-94.96,15.69-154.35,17.06c-3.31,0.04-5.97,2.75-5.93,6.07s2.75,5.97,6.07,5.93h0.14
		c60.22-1.38,115.93-7.56,156.88-17.39c45.07-10.82,67.92-24.8,67.92-41.55C507,215.38,489.81,195.75,409,181.89L409,181.89z"/>
	<path class="st2" d="M248.97,276.31l-49.87-30.35c-2.82-1.72-6.51-0.83-8.23,2c-0.57,0.94-0.88,2.02-0.87,3.13v23.75
		c-49-2.99-93.01-9.36-124.65-18.05C29.71,246.99,17,236.3,17,229.56c0-10.31,26.68-25.05,86-35.48v-12.19
		c-80.81,13.85-98,33.49-98,47.67c0,15.32,19.24,28.37,57.17,38.79C94.74,277.3,140,283.82,190,286.85v24.94
		c-0.01,3.31,2.67,5.99,5.98,6c1.1,0,2.18-0.3,3.12-0.87l49.87-30.35c2.83-1.72,3.73-5.41,2.01-8.24
		C250.47,277.49,249.78,276.81,248.97,276.31L248.97,276.31z M202,301.11v-39.36l32.33,19.68L202,301.11z"/>
</g>
</svg>
