<?xml version="1.0" encoding="utf-8"?>
<!-- Generator: Adobe Illustrator 25.2.1, SVG Export Plug-In . SVG Version: 6.00 Build 0)  -->
<svg version="1.1" id="Layer_1" xmlns="http://www.w3.org/2000/svg" xmlns:xlink="http://www.w3.org/1999/xlink" x="0px" y="0px"
	 viewBox="0 0 512 512" style="enable-background:new 0 0 512 512;" xml:space="preserve">
<style type="text/css">
	.st0{fill:#D4E1F4;}
	.st1{fill:#1C2226;}
	.st2{fill:#E20613;}
</style>
<path class="st0" d="M149.8,78.19C77.95,80.77,25.66,135.81,17.2,199.84V200h30l-0.01-0.16c8.09-61.23,56.26-114.25,123.28-121.03
	c-5.58-0.54-11.18-0.78-16.78-0.72C152.4,78.11,151.1,78.15,149.8,78.19L149.8,78.19z"/>
<path class="st0" d="M62.12,283.04c-6.77-12.87-11.49-26.72-14-41.04h-30c2.51,14.32,7.23,28.17,14,41.04
	c0,0,16.2,40.04,17.77,56.92c5.34,57.25,0,147.04,0,147.04h30c0,0,5.34-89.8,0-147.04C78.32,323.08,62.12,283.04,62.12,283.04z"/>
<path class="st1" d="M341.67,155h-35.93c-0.24,0-0.47,0.18-0.71,0.21l-10.13,1.28c-27.43-52.5-82.04-85.12-141.27-84.39
	c-1.35,0.01-2.71,0.06-4.05,0.1c-49.58,1.73-94.77,28.92-119.5,71.93C4.61,187.58,3.32,241.1,26.67,285.74
	c1.38,3.44,15.84,39.74,17.25,54.87c5.23,56.14,0.04,145.15-0.01,146.05c-0.13,2.24,1,4.37,2.94,5.52c0.97,0.56,2.07,0.84,3.19,0.82
	h160.99c3.3,0,5.98-2.68,5.98-5.98v-48.09c-0.01-1.05,0.2-2.09,0.6-3.06c2.52-5.86,8.22-9.72,14.6-9.87l17.69,0.49
	c21.98,0.71,40.38-16.53,41.09-38.51c0.01-0.33,0.02-0.65,0.02-0.98v-44h38.46c6.89,0.16,12.6-5.3,12.76-12.19
	c0.04-1.65-0.25-3.28-0.85-4.82L325.68,285h16.62c3.15,0,5.7-2.55,5.7-5.7v0V161.33C347.99,157.84,345.16,155.01,341.67,155
	L341.67,155z M300,168.08v104.33l-82-8.85v-85.75L300,168.08z M40.46,150.1c22.68-39.43,64.1-64.36,109.55-65.93
	c1.25-0.04,2.5-0.06,3.76-0.07c53.08-0.64,102.27,27.73,128.31,73.99l-66.57,7.89c-5.06-10.33-17.53-14.6-27.85-9.54
	c-7.1,3.48-11.62,10.67-11.66,18.58V177h-15.08c-9.8,0-17.79,7-18.14,17H24.2C27.07,178.54,32.57,163.69,40.46,150.1z M206,175.02
	v91.4c0,4.97-4.03,9-9,9s-9-4.03-9-9v-91.4c0.17-4.97,4.33-8.87,9.3-8.7C202.04,166.47,205.84,170.28,206,175.02z M176,189v64
	h-15.08c-3.38-0.11-6.03-2.95-5.92-6.34c0-0.01,0-0.01,0-0.02v-51.85c-0.08-3.12,2.39-5.72,5.51-5.8c0.14,0,0.27,0,0.41,0H176z
	 M22.58,206H143v30H23.29C21.91,226.06,21.67,215.99,22.58,206z M330.16,330.37c0.03,0.09,0.13,0.18-0.08,0.49s-0.5,0.14-0.6,0.14
	h-44.61c-3.24,0-5.88,2.63-5.88,5.88V387c0,7.47-3.04,14.61-8.43,19.78c-5.44,5.24-12.76,8.05-20.3,7.8l-18.08-0.57
	c-10.82,0.08-20.61,6.4-25.15,16.22c-1.15,2.56-1.75,5.33-1.74,8.14L205,481H56.22c1.08-22,4.14-93.28-0.35-141.51
	c-1.64-17.55-17.5-56.85-18.18-58.52c-0.07-0.18-0.15-0.51-0.24-0.68c-5.32-10.22-9.33-21.07-11.94-32.29h117.33
	c0.84,10,8.63,17,18.08,17H176v0.8c0,11.12,8.52,20.66,19.62,21.29c8.37,0.47,16.2-4.14,19.86-11.68l89.59,9.6
	c0.22,0.01,0.45,0,0.67-0.01h7.09L330.16,330.37z M336,273h-24V167h24V273z"/>
<path class="st1" d="M75,349.41c-3.31,0-6,2.69-6,6v3.08c0,3.31,2.69,6,6,6s6-2.69,6-6v-3.08C81,352.1,78.31,349.41,75,349.41z"/>
<path class="st1" d="M75,373.76c-3.31,0-6,2.69-6,6v60.39c0,3.31,2.69,6,6,6s6-2.69,6-6v-60.39C81,376.44,78.31,373.76,75,373.76z"
	/>
<g>
	<path class="st2" d="M448.79,229c0-3.31-2.69-6-6-6h-49.27c-3.31,0-6,2.69-6,6s2.69,6,6,6h49.27
		C446.1,235,448.79,232.31,448.79,229z"/>
	<path class="st2" d="M426.24,116.54c-1.38-3.01-4.94-4.33-7.96-2.95l0,0l-45.07,20.69c-3.01,1.38-4.33,4.94-2.95,7.96
		c1.38,3.01,4.94,4.33,7.96,2.95l45.07-20.69C426.3,123.12,427.62,119.56,426.24,116.54C426.24,116.54,426.24,116.54,426.24,116.54
		L426.24,116.54z"/>
	<path class="st2" d="M369.16,315.32c-1.38,3.01-0.06,6.57,2.95,7.96h0l45.07,20.69c3.01,1.38,6.57,0.06,7.96-2.95
		c1.38-3.01,0.06-6.57-2.95-7.96l0,0l-45.07-20.69C374.1,310.99,370.54,312.31,369.16,315.32L369.16,315.32L369.16,315.32z"/>
	<path class="st2" d="M499.4,158.39l-25.82-17.77c-2.7-1.93-6.44-1.3-8.37,1.39c-1.93,2.7-1.3,6.44,1.39,8.37
		c0.06,0.04,0.12,0.08,0.18,0.12l13.89,9.56l-52.4,9.67c-3.27,0.56-5.46,3.67-4.9,6.93s3.67,5.46,6.93,4.9
		c0.05-0.01,0.09-0.02,0.14-0.03l52.4-9.67l-9.56,13.89c-1.83,2.76-1.07,6.49,1.69,8.31c2.69,1.78,6.31,1.11,8.19-1.51l17.77-25.82
		C502.82,164,502.13,160.26,499.4,158.39L499.4,158.39z"/>
	<path class="st2" d="M391.43,182.63c-0.6-3.26-3.73-5.41-6.99-4.81c0,0,0,0,0,0l-0.63,0.12c-3.27,0.55-5.47,3.65-4.92,6.91
		c0.55,3.27,3.65,5.47,6.91,4.92c0.06-0.01,0.12-0.02,0.18-0.03l0.63-0.12C389.88,189.02,392.03,185.89,391.43,182.63L391.43,182.63
		z"/>
	<path class="st2" d="M410.16,185.17c0.37,0,0.74-0.03,1.1-0.1l0.3-0.05c3.26-0.61,5.41-3.74,4.8-7c-0.61-3.26-3.74-5.41-7-4.8
		l-0.29,0.05c-3.26,0.6-5.41,3.73-4.81,6.99C404.78,183.11,407.26,185.17,410.16,185.17L410.16,185.17z"/>
	<path class="st2" d="M346.46,88.89l-0.53,0.36c-2.75,1.84-3.49,5.57-1.65,8.32c1.84,2.75,5.57,3.49,8.32,1.65
		c0.02-0.01,0.03-0.02,0.05-0.03l0.53-0.36c2.73-1.87,3.43-5.61,1.56-8.34C352.89,87.77,349.19,87.06,346.46,88.89z"/>
	<path class="st2" d="M370.58,85.83c1.2,0,2.36-0.36,3.35-1.03l0.25-0.17c2.76-1.84,3.5-5.56,1.67-8.32
		c-1.84-2.76-5.56-3.5-8.32-1.67c-0.02,0.01-0.04,0.03-0.06,0.04l-0.25,0.17c-2.75,1.85-3.47,5.58-1.62,8.33
		C366.71,84.84,368.58,85.83,370.58,85.83z"/>
	<path class="st2" d="M386.74,74.9c1.2,0,2.37-0.36,3.36-1.03l44.14-29.85l-3.2,16.56c-0.65,3.25,1.45,6.41,4.7,7.07
		c3.25,0.65,6.41-1.45,7.07-4.7c0.01-0.03,0.01-0.06,0.02-0.09l5.94-30.78c0.63-3.25-1.5-6.4-4.75-7.03l-30.78-5.94
		c-3.26-0.6-6.39,1.55-6.99,4.81c-0.6,3.22,1.5,6.33,4.72,6.97l16.56,3.2l-44.13,29.84c-2.75,1.85-3.48,5.58-1.62,8.33
		C382.87,73.91,384.74,74.9,386.74,74.9z"/>
	<path class="st2" d="M483.17,265.01c-1.88-2.73-5.62-3.42-8.35-1.54s-3.42,5.62-1.54,8.35l9.56,13.89l-52.4-9.67
		c-3.25-0.64-6.41,1.48-7.05,4.73c-0.64,3.25,1.48,6.41,4.73,7.05c0.05,0.01,0.09,0.02,0.14,0.03l52.4,9.67l-13.89,9.56
		c-2.73,1.88-3.42,5.62-1.54,8.35s5.62,3.42,8.35,1.54l0,0l25.82-17.77c2.73-1.88,3.42-5.61,1.54-8.34c0,0,0,0,0,0L483.17,265.01z"
		/>
	<path class="st2" d="M379,272.63c-0.6,3.26,1.55,6.39,4.81,6.99c0,0,0,0,0,0l0.63,0.12c3.26,0.6,6.39-1.55,6.99-4.81
		c0.6-3.26-1.55-6.39-4.81-6.99l-0.63-0.12C382.73,267.22,379.6,269.37,379,272.63L379,272.63z"/>
	<path class="st2" d="M409.37,284.34c0.36,0.07,0.73,0.1,1.09,0.1c3.31-0.01,5.99-2.7,5.99-6.01c-0.01-2.89-2.07-5.36-4.91-5.89
		l-0.29-0.05c-3.27-0.55-6.36,1.66-6.91,4.93c-0.53,3.19,1.56,6.23,4.73,6.87L409.37,284.34z"/>
	<path class="st2" d="M442.82,394.72c-0.6-3.26-3.73-5.41-6.99-4.81s-5.41,3.73-4.81,6.99c0.01,0.03,0.01,0.06,0.02,0.09l3.2,16.56
		L390.1,383.7c-2.74-1.86-6.48-1.14-8.33,1.61c-1.86,2.74-1.14,6.47,1.61,8.33l44.14,29.85l-16.56,3.2
		c-3.26,0.6-5.42,3.72-4.82,6.98c0.6,3.26,3.72,5.42,6.98,4.82c0.04-0.01,0.08-0.01,0.11-0.02l30.78-5.94
		c3.25-0.63,5.38-3.77,4.75-7.03L442.82,394.72z"/>
	<path class="st2" d="M353.18,358.73l-0.53-0.36c-2.72-1.89-6.46-1.22-8.35,1.5c-1.89,2.72-1.22,6.46,1.5,8.35
		c0.04,0.03,0.09,0.06,0.13,0.09l0.53,0.36c2.73,1.88,6.46,1.19,8.34-1.54c1.88-2.73,1.19-6.46-1.54-8.34
		C353.24,358.77,353.21,358.75,353.18,358.73z"/>
	<path class="st2" d="M374.18,372.93l-0.25-0.17c-2.74-1.86-6.47-1.14-8.33,1.6s-1.14,6.47,1.6,8.33l0,0l0.25,0.17
		c2.74,1.86,6.47,1.14,8.33-1.6S376.93,374.79,374.18,372.93z"/>
</g>
</svg>
