<?xml version="1.0" encoding="utf-8"?>
<!-- Generator: Adobe Illustrator 25.2.1, SVG Export Plug-In . SVG Version: 6.00 Build 0)  -->
<svg version="1.1" id="Layer_1" xmlns="http://www.w3.org/2000/svg" xmlns:xlink="http://www.w3.org/1999/xlink" x="0px" y="0px"
	 viewBox="0 0 512 512" style="enable-background:new 0 0 512 512;" xml:space="preserve">
<style type="text/css">
	.st0{fill:#D4E1F4;}
	.st1{fill:#1C2226;}
	.st2{fill:#E20613;}
</style>
<path class="st0" d="M336.5,125.8c0-47.9,38.8-86.8,86.8-86.8c9.7,0,19.2,1.6,28.4,4.8C411.9,17.1,358,27.7,331.3,67.4
	c-24.5,36.5-17.9,85.5,15.4,114.1v-15C340,154,336.5,140,336.5,125.8z"/>
<path class="st0" d="M336.5,396.2c0.1-44,33-81,76.8-86.2c-47.6-5.5-90.6,28.5-96.2,76.1c-3.3,28.6,7.8,57,29.6,75.8v-16.2
	c0-2.5,0.3-4.9,0.8-7.4C340.2,425.4,336.5,410.9,336.5,396.2z"/>
<path class="st1" d="M402.4,130.4h1.6c17.9,0,32.4-14.5,32.4-32.4V82.7c0-17.9-14.5-32.4-32.4-32.4h-1.6
	c-17.9,0-32.4,14.5-32.4,32.4V98C370,115.9,384.5,130.4,402.4,130.4z M382,82.7c0-11.3,9.2-20.4,20.4-20.4h1.6
	c11.3,0,20.4,9.2,20.4,20.4V98c0,11.3-9.2,20.4-20.4,20.4h-1.6c-11.3,0-20.4-9.2-20.4-20.4V82.7z"/>
<path class="st1" d="M502,115.8c0-54.5-44.2-98.8-98.7-98.8c-53.1,0-96.7,42-98.7,95.1l-135.8,70.3l5.5,10.7L305,125.5
	c4.8,48.3,43.9,85.9,92.3,88.9v83.2c-48.5,3-87.7,40.9-92.3,89.3l-126.6-73.1l-6,10.4l132.2,76.4c2.4,54.5,48.6,96.7,103.1,94.2
	s96.7-48.6,94.2-103.1c-2.3-50.5-42.2-91.1-92.7-94.2v-83.2C461.3,211.2,501.9,168,502,115.8z M447.8,190.2
	c-27.4,16.5-61.7,16.5-89.2,0v-24.9c0.1-12.3,9.1-22.7,21.3-24.4c12.1,13.2,32.6,14,45.8,1.9c0.6-0.6,1.2-1.2,1.8-1.8
	c11.8,2.1,20.3,12.3,20.3,24.3V190.2z M316.5,115.8c0-47.9,38.8-86.8,86.7-86.8c47.9,0,86.8,38.8,86.8,86.7
	c0,25.3-11,49.3-30.2,65.8v-16.2c0-19.3-15-35.4-34.4-36.6c-3.2-0.2-4.8,1.8-5.9,3.2c-7.1,8.7-20,10-28.7,2.9
	c-1.3-1.1-2.5-2.3-3.5-3.7c-1.2-1.6-3-2.5-5-2.4c-19.8,0.6-35.6,16.8-35.7,36.7v16.2C327.5,165.1,316.5,141.1,316.5,115.8z
	 M358.7,470.5v-24.9c0.1-12.3,9.1-22.7,21.3-24.4c12.1,13.2,32.6,14,45.8,1.9c0.6-0.6,1.2-1.2,1.8-1.8c11.8,2.1,20.3,12.3,20.3,24.3
	v24.9C420.4,487,386.1,487,358.7,470.5L358.7,470.5z M490,396.2c0,25.3-11,49.2-30.2,65.7v-16.2c0-19.3-15-35.4-34.4-36.6
	c-3.2-0.2-4.8,1.8-5.9,3.2c-7.1,8.7-20,10-28.7,2.9c-1.3-1.1-2.5-2.3-3.5-3.7c-1.2-1.6-3-2.5-5-2.4c-19.8,0.6-35.6,16.8-35.7,36.7
	v16.2c-36.3-31.3-40.4-86-9.1-122.3s86-40.4,122.3-9.1C479,346.9,490,370.9,490,396.2z"/>
<path class="st1" d="M370,363.1v15.2c0,17.9,14.5,32.4,32.4,32.4h1.6c17.9,0,32.4-14.5,32.4-32.4v-15.2c0-17.9-14.5-32.4-32.4-32.4
	h-1.6C384.5,330.6,370,345.1,370,363.1z M424.5,363.1v15.2c0,11.3-9.2,20.4-20.4,20.4h-1.6c-11.3,0-20.4-9.2-20.4-20.4v-15.2
	c0-11.3,9.2-20.4,20.4-20.4h1.6C415.3,342.6,424.5,351.8,424.5,363.1z"/>
<path class="st2" d="M109.6,190.4h-1.6c-17.9,0-32.4,14.5-32.4,32.4v15.2c0,17.9,14.5,32.4,32.4,32.4h1.6
	c17.9,0,32.4-14.5,32.4-32.4v-15.2C142,205,127.5,190.5,109.6,190.4z M130,238.1c0,11.3-9.2,20.4-20.4,20.4h-1.6
	c-11.3,0-20.4-9.2-20.4-20.4v-15.2c0-11.3,9.2-20.4,20.4-20.4h1.6c11.3,0,20.4,9.2,20.4,20.4V238.1z"/>
<path class="st2" d="M108.8,157.2C54.2,157.2,10,201.5,10,256c0,54.5,44.2,98.8,98.7,98.8c54.5,0,98.8-44.2,98.8-98.7c0,0,0,0,0,0
	C207.4,201.5,163.3,157.3,108.8,157.2z M64.2,330.4v-24.9c0.1-12.3,9.1-22.7,21.3-24.4c12.1,13.2,32.6,14,45.8,1.9
	c0.6-0.6,1.2-1.2,1.8-1.8c11.8,2.1,20.3,12.3,20.3,24.3v24.9C125.9,346.9,91.6,346.9,64.2,330.4L64.2,330.4z M165.3,321.7v-16.2
	c0-19.3-15-35.4-34.4-36.6c-3.2-0.2-4.8,1.8-5.9,3.2c-7.1,8.7-20,10-28.7,2.9c-1.3-1.1-2.5-2.3-3.5-3.7c-1.2-1.6-3-2.5-5-2.4
	c-19.8,0.6-35.6,16.8-35.7,36.7v16.2c-36.3-31.3-40.4-86-9.2-122.3s86-40.4,122.3-9.2s40.4,86,9.2,122.3
	C171.7,315.8,168.6,318.9,165.3,321.7z"/>
<path class="st0" d="M42,266c0-47.9,38.8-86.8,86.8-86.8c9.7,0,19.2,1.6,28.4,4.8c-39.7-26.7-93.6-16.2-120.4,23.5
	C12.2,244,18.8,293,52.2,321.7v-15C45.5,294.2,42,280.2,42,266z"/>
</svg>
