<?xml version="1.0" encoding="utf-8"?>
<!-- Generator: Adobe Illustrator 25.2.1, SVG Export Plug-In . SVG Version: 6.00 Build 0)  -->
<svg version="1.1" id="Layer_1" xmlns="http://www.w3.org/2000/svg" xmlns:xlink="http://www.w3.org/1999/xlink" x="0px" y="0px"
	 viewBox="0 0 512 512" style="enable-background:new 0 0 512 512;" xml:space="preserve">
<style type="text/css">
	.st0{fill:#D4E1F4;}
	.st1{fill:#E20613;}
	.st2{fill:#1C2226;}
</style>
<path class="st0" d="M350.3,344.7c-5.8,0.1-11.5,2.4-15.8,6.3c6.3,5.8,10.3,15.1,10.3,25.6s-4.1,19.8-10.3,25.6
	c4.3,3.9,9.9,6.2,15.8,6.3c14.1,0,25.5-14.3,25.5-31.9S364.4,344.7,350.3,344.7z"/>
<path class="st0" d="M279,364h15.8c2.7-8,8.2-14.2,15.2-17.2V279h-31V364z"/>
<path class="st0" d="M294.8,389H279v112c10.4,0,20.7-0.7,31-2.2v-92.3C303,403.5,297.6,397,294.8,389z"/>
<path class="st1" d="M394.1,71.8C305.7-17.9,161.4-19,71.8,69.3S-19,301.9,69.3,391.6c0.8,0.8,1.6,1.6,2.4,2.4
	c42.7,42.9,100.7,66.9,161.2,66.8c3.3,0,6-2.7,6-6V239h215.8c3.3,0,6-2.7,6-6C461,172.5,436.9,114.4,394.1,71.8z M239,17.1
	c42.3,1.1,83.3,14.7,117.9,38.9h-17.2c-3.2,0.1-5.8,2.8-5.7,6c0,0,0,0.1,0,0.1v0.7c-0.1,2.5,1.5,4.8,3.9,5.7
	c8.9,3.1,15,10.8,15,18.8c0,10.8-11.7,19.5-25.9,19.5s-25.9-8.8-25.9-19.5c0-8,6.1-15.7,15-18.8c2.4-0.8,4-3.1,3.9-5.7v-0.7
	c0.1-3.3-2.5-6-5.8-6.1c0,0,0,0,0,0H239V17.1z M186.2,22c13.4-2.9,27-4.6,40.8-5V56h-58.5c11-6,18.4-16.6,18.4-28
	C186.9,26,186.7,24,186.2,22z M119.8,48.8c2.8,2.9,6,5.3,9.6,7.2h-20.5C112.5,54,116.1,51.1,119.8,48.8z M54,112.5v16.7
	c-1.7-2.7-3.7-5.2-5.9-7.5C50,118.6,52,115.5,54,112.5z M21.7,188c1.7,0.3,3.4,0.4,5.1,0.4c10.8,0,21.3-6.6,27.3-16.6V227H17.1
	C17.5,213.9,19,200.8,21.7,188z M58.5,341.2c-2.7,0.6-4.6,3.1-4.5,5.9v6.1C31,319.4,18.2,279.8,17.1,239h36.5l-0.1,76.7
	c0,3.3,2.7,6,6,6c2.3,0,4.4-1.4,5.4-3.5c3.6-7.6,10.7-12.7,17.8-12.7c10.8,0,19.5,11.6,19.5,25.9s-8.8,25.9-19.5,25.9
	c-7.1,0-14.1-5.1-17.7-12.7C63.9,342,61.2,340.6,58.5,341.2z M227,448.7c-31.7-0.8-62.9-8.6-91.3-22.7H227V448.7z M227,414H114.9
	c-12.4-8.2-24-17.7-34.4-28.3c-5.3-5.1-10.1-10.5-14.5-16.4v-5.8c4.9,3.7,10.9,5.7,17,5.7c17.4,0,31.4-17,31.4-37.9
	s-14.2-37.9-31.6-37.9c-6.2,0.1-12.2,2.1-17.2,5.8l0.1-60.2h68.5c3.3,0,6-2.8,6-6.1c0-2.3-1.4-4.4-3.4-5.4
	c-3.1-1.5-12.7-6-12.7-15.4c0-10.8,11.6-19.5,25.9-19.5s25.9,8.8,25.9,19.5c0,9.4-9.6,13.9-12.7,15.4c-3,1.4-4.3,5.1-2.8,8.1
	c1,2.1,3.1,3.4,5.4,3.4H227V414z M227,227h-44c3.2-4.3,4.9-9.5,4.8-14.8c0-17.4-17-31.5-37.9-31.5S112,194.8,112,212.2
	c0,5.3,1.6,10.5,4.8,14.8H66v-63.8c-0.1-3.4-2.9-6.2-6.4-6.2H51c-2.6,0.1-4.8,1.7-5.7,4.2c-3.1,8.9-10.8,15.2-18.8,15.2
	c-0.7,0-1.4,0-2.1-0.1c4.1-15.1,9.8-29.7,17.1-43.5c1.6,2.2,2.9,4.6,3.8,7.1c0.8,2.4,3.1,4.1,5.7,4.2h8.6c3.4-0.1,6.2-2.9,6.4-6.3
	V96.4c4-5.6,9.3-11,14.4-16.2c4.2-4.2,8.5-8.2,13-12.2h42.8c3.2,0,5.7-2.5,5.8-5.7c0-0.1,0-0.1,0-0.2v-9.6c0-2.5-1.5-4.8-3.9-5.7
	c-2.7-1-5.2-2.4-7.5-4.2c13.9-7.5,28.7-13.4,43.9-17.7c0.2,1,0.4,2.1,0.4,3.1c0,8-6.1,15.7-15,18.8c-2.4,0.9-3.9,3.1-3.9,5.7v9.6
	c-0.1,3.1,2.4,5.8,5.5,5.9c0.1,0,0.2,0,0.2,0H227v55.9c-6-6.4-14.1-10.3-22.4-10.3c-17.4,0-31.6,17-31.6,37.9s14.2,37.9,31.6,37.9
	c8.3,0,16.4-3.9,22.4-10.3L227,227z M411,227H239v-62.8c0-3.4-2.7-6.1-6.1-6.2H229c-2.6,0-4.8,1.7-5.7,4.1
	c-3.1,8.9-10.8,15.2-18.8,15.2c-10.8,0-19.5-11.6-19.5-25.9s8.8-25.9,19.5-25.9c8,0,15.7,6.4,18.8,15.3c0.8,2.4,3.1,4.1,5.7,4.2h3.9
	c3.4-0.1,6.1-2.9,6.1-6.3V68h57.3c-4.6,6-7.3,12.3-7.3,19.3c0,17.4,17,31.6,37.9,31.6s37.9-14.2,37.9-31.6c0-6.9-2.7-13.2-7.3-19.2
	h14.8c4.5,4,9.1,7.9,13.3,12.2c9.3,9.3,17.3,19.4,25.3,30.1v7.9c-4.9-3.5-10.8-5.5-16.8-5.5c-17.4,0-31.6,17-31.6,37.9
	s14.3,37.9,31.7,37.9c6-0.1,11.9-2,16.8-5.5V227z M423,227v-60.7c-0.1-3.4-2.9-6.1-6.3-6c-2.3,0.1-4.4,1.4-5.4,3.4
	c-3.7,7.9-10.3,12.7-17.2,12.7c-10.8,0-19.5-11.6-19.5-25.9s8.7-25.9,19.5-25.9c6.9,0,13.5,4.9,17.2,12.7c1.3,2.6,4.1,3.9,6.9,3.3
	c2.8-0.6,4.8-3,4.9-5.9v-5.1c16.2,29.9,25,63.3,25.7,97.3H423z"/>
<path class="st1" d="M89,88.5c-3.3,0-6,2.7-6,6v3.6c0,3.3,2.7,6,6,6s6-2.7,6-6v-3.6C95,91.2,92.3,88.5,89,88.5z"/>
<path class="st1" d="M89,109.1c-3.3,0-6,2.7-6,6l0,0v53.2c0,3.3,2.7,6,6,6s6-2.7,6-6v-53.2C95,111.8,92.3,109.1,89,109.1L89,109.1z"
	/>
<path class="st2" d="M501,273H385.9c-3.3,0.1-6,2.8-5.9,6.1c0,0,0,0,0,0v16.5c0,2.5,1.6,4.8,4,5.7c8.9,3.1,15.1,10.8,15.1,18.8
	c0,10.8-11.6,19.5-25.9,19.5s-25.9-8.8-25.9-19.5c0-7.8,6.2-15.7,14.9-18.8c2.4-0.9,3.9-3.1,3.8-5.7v-16.5c0-3.3-2.3-6.1-5.6-6.1
	h-81.3c-3.4,0-6.1,2.7-6.1,6.1v84.8c0,3.4,2.7,6.1,6.1,6.1h15.7c2.6,0,4.8-1.7,5.7-4.1c3.1-8.9,10.8-15.2,18.8-15.2
	c10.8,0,19.5,11.6,19.5,25.9s-8.8,25.9-19.5,25.9c-8,0-15.7-6.4-18.8-15.3c-0.8-2.5-3.1-4.1-5.7-4.2h-15.7c-3.4,0.2-6.1,3-6.1,6.4
	V501c0,3.3,2.7,6,6,6C404.9,507,507,405,507,279.1c0,0,0,0,0,0C507,275.7,504.3,273,501,273z M285,494.9V472h91.3
	C347.9,486.2,316.7,494,285,494.9z M431.8,431.7c-10.5,10.6-22.2,20.1-34.7,28.3H285v-65h5.9c5.6,12,16.8,19.3,28.4,19.3
	c17.4,0,31.5-16.9,31.5-37.8s-14.1-37.8-31.5-37.8c-11.7,0-22.8,7.3-28.4,19.3H285v-73h69v6.6c-11,5.6-19,16.8-19,28.4
	c0,17.4,17.1,31.5,38,31.5s38-14.1,38-31.5c0-11.7-8-22.9-19-28.4V285h102.9C493.7,340.2,471,392.8,431.8,431.7z"/>
</svg>
