<?xml version="1.0" encoding="utf-8"?>
<!-- Generator: Adobe Illustrator 25.2.1, SVG Export Plug-In . SVG Version: 6.00 Build 0)  -->
<svg version="1.1" id="Layer_1" xmlns="http://www.w3.org/2000/svg" xmlns:xlink="http://www.w3.org/1999/xlink" x="0px" y="0px"
	 viewBox="0 0 512 512" style="enable-background:new 0 0 512 512;" xml:space="preserve">
<style type="text/css">
	.st0{fill:#D4E1F4;}
	.st1{fill:#1C2226;}
	.st2{fill:#E20613;}
</style>
<path class="st0" d="M309.2,201.8c-32.8-33-86.2-33.2-119.3-0.3c-0.1,0.1-0.2,0.2-0.3,0.3c-32.9,33.2-32.9,86.7,0,119.9
	c15.8,16,37.3,24.9,59.8,24.9l0,0c22.5,0.1,44-8.9,59.8-24.9C342.1,288.6,342.1,235,309.2,201.8z M299.3,311.9
	c-27.4,27.5-71.9,27.7-99.5,0.3c-0.1-0.1-0.2-0.2-0.3-0.3c-27.5-27.7-27.5-72.5,0-100.2c27.4-27.5,71.9-27.7,99.5-0.3
	c0.1,0.1,0.2,0.2,0.3,0.3C326.8,239.4,326.8,284.2,299.3,311.9z"/>
<path class="st0" d="M136.4,71.6c13.3,1.7,47.8,8.4,83.1,33.7c3.7,2.7,7.3,5.6,10.8,8.7c-9-10-20.1-21-30.8-28.7
	c-35.3-25.3-69.8-32-83.1-33.7L84.9,242.8c5.7,0.3,13.8,1,22.9,2.2L136.4,71.6z"/>
<polygon class="st0" points="85.8,140 87.7,140 91,120 65.8,120 34.3,310 57.6,310 "/>
<path class="st0" d="M295.9,105.3c23.6-17.1,50.9-28.6,79.7-33.5l28.6,173.4c10-1.5,18.4-2.2,22.9-2.5L395.6,51.8
	c-28.8,4.9-56,16.4-79.7,33.5c-14,10.3-29,25.1-39.7,36.6C282.5,116,289.1,110.5,295.9,105.3z"/>
<polygon class="st0" points="428.2,140 456.4,310 477.7,310 446.2,120 421,120 424.3,140 "/>
<path class="st1" d="M459.6,115c-0.9-5.3-5.5-9.1-10.9-9h-30.1L409,46.8c-0.9-5.9-6.4-10-12.3-9.2c-11.3,1.5-51,8.6-89,36.5
	c-20.2,14.8-41.5,37.7-51.4,48.9c-2.7-3.4-6.8-8.4-11.6-13.9c-13.5-15.4-25.9-27.2-37-35.1c-41-29.4-81.3-35.5-92.7-36.6
	c-5.8-0.5-11,3.6-12,9.3L93.3,106H63.2c-5.4-0.1-10,3.7-10.9,9L19.9,311.7c-0.5,3.1,0.4,6.3,2.5,8.7c2.1,2.4,5.2,3.7,8.4,3.6H160
	v-14H34.3l31.5-190H91L70.5,244c-0.5,3.1,0.3,6.2,2.3,8.6c2,2.4,4.9,3.9,8,4c11,0.5,39,2.6,61.6,10.1c3.7,1.2,7.6-0.9,8.8-4.6
	c1.2-3.6-0.8-7.5-4.4-8.8c-22.1-7.3-48.7-9.8-61.9-10.6l31.5-191.2c13.3,1.7,47.8,8.4,83.1,33.7c21.3,15.3,44,43.9,49.5,51v20
	c0,3.9,3.1,7,7,7s7-3.1,7-7v-19.8c6.5-7.5,30.9-35.1,52.9-51.2c23.6-17.1,50.9-28.6,79.7-33.5l31.4,190.9
	c-11.9,0.8-51.8,4.4-76,18.1c-3.4,1.8-4.7,6.1-2.9,9.5c1.8,3.4,6.1,4.7,9.5,2.9c0.1,0,0.2-0.1,0.3-0.1
	c20.2-11.4,56.7-15.7,73.2-16.5c3.1-0.1,6.1-1.6,8-4.1c2-2.4,2.8-5.5,2.3-8.5L421,120h25.3l31.5,190H344v14h137.3
	c3.2,0.1,6.3-1.3,8.4-3.7c2.1-2.4,3-5.6,2.5-8.7L459.6,115z"/>
<path class="st2" d="M358.2,340.3c3.4-7.6,1.9-16.4-3.9-22.4l-5-5.1c21.5-42.2,14.7-95.4-20.5-130.7c-43.5-43.7-114.3-43.9-158-0.4
	c-0.1,0.1-0.3,0.3-0.4,0.4c-43.7,43.8-43.7,115.1,0,158.9c33.9,34.1,85.9,42.7,128.9,21.3l5.3,5.5c3.5,3.4,8.2,5.2,13.1,5.2l0,0
	c3.3-0.1,6.6-0.8,9.6-2.1l74.6,74.8c-3.7,7.9-3.1,16.5,2.3,21.9l9.6,9.6c2.7,2.7,7.2,2.7,9.9,0c0,0,0,0,0,0l39.8-40
	c2.7-2.7,2.7-7.2,0-9.9l-9.6-9.6c-3.3-3.4-7.9-5.2-12.6-5.2c-3.1,0-6.2,0.8-8.9,2.1L358.2,340.3z M410.6,434.6l-72.1-72.3l10.9-10.9
	l72.1,72.3L410.6,434.6z M180.3,331.2c-38.2-38.5-38.2-100.7,0-139.2c38.1-38.3,99.9-38.4,138.2-0.4c0.1,0.1,0.2,0.2,0.4,0.4
	c38.2,38.5,38.2,100.7,0,139.2c-38.1,38.3-99.9,38.4-138.2,0.4C180.6,331.5,180.4,331.3,180.3,331.2z M317.7,358.7
	c-1.1,0.1-2.2-0.2-3.1-0.9l-2.7-2.7c11.8-8,22-18.1,30.1-29.9l2.5,2.5c2.1,2.1,2.4,6.4-0.9,9.6l-18,18
	C323.5,357.5,320.7,358.6,317.7,358.7L317.7,358.7z M441.3,426.5c1,0,2,0.4,2.7,1.1l4.6,4.7l-29.9,30.1l-4.6-4.6
	c-1.3-1.3-0.5-6.3,3.3-10.2l18-18C436.9,427.8,439,426.7,441.3,426.5z"/>
<path class="st2" d="M309.2,201.8c-32.8-33-86.2-33.2-119.3-0.3c-0.1,0.1-0.2,0.2-0.3,0.3c-32.9,33.2-32.9,86.7,0,119.9
	c15.8,16,37.3,24.9,59.8,24.9l0,0c22.5,0.1,44-8.9,59.8-24.9C342.1,288.6,342.1,235,309.2,201.8z M299.3,311.9
	c-27.4,27.5-71.9,27.7-99.5,0.3c-0.1-0.1-0.2-0.2-0.3-0.3c-27.5-27.7-27.5-72.5,0-100.2c27.4-27.5,71.9-27.7,99.5-0.3
	c0.1,0.1,0.2,0.2,0.3,0.3C326.8,239.4,326.8,284.2,299.3,311.9z"/>
</svg>
