<svg width="500" height="615" viewBox="0 0 500 615" fill="none" xmlns="http://www.w3.org/2000/svg">
<path d="M0 66C0 29.5492 29.5492 0 66 0H343.068C360.418 0 377.071 6.83216 389.422 19.0179L480.354 108.734C492.924 121.136 500 138.058 500 155.716V549C500 585.451 470.451 615 434 615H66C29.5492 615 0 585.451 0 549V66Z" fill="white"/>
<path d="M219.583 137.917C220.905 113.959 250.416 111.042 258.125 137.917C264.291 159.417 254.375 193.959 248.061 218.623C254.375 233.125 274.999 260 287.291 271.875C328.332 265.625 351.457 266.322 366.666 273.542C387.291 283.334 382.916 307.424 362.916 309.375C345.833 311.042 320.624 309.374 284.791 279.583C275.485 280.833 247.749 286.208 214.583 297.708C201.874 318.125 184.166 346.049 169.166 358.125C144.583 377.916 126.041 371.458 120.833 360.625C113.75 341.458 142.499 323.541 194.791 297.708C203.055 281.319 222.124 240.333 232.291 207.5C227.846 196.875 217.916 168.125 219.583 137.917ZM187.708 308.958C116.458 339.704 119.791 360.417 133.125 362.5C146.458 364.583 162.916 347.708 187.708 308.958ZM362.083 290.625C361.249 271.042 331.249 271.041 292.083 277.708C337.708 310.208 362.083 304.375 362.083 290.625ZM244.583 226.458C233.583 258.958 222.916 281.806 218.958 289.167C248.624 280 272.152 275.069 280.208 273.75C263.708 255.083 249.583 234.444 244.583 226.458ZM236.041 197.083C253.332 141.875 247.5 124.375 234.375 126.25C220.625 128.542 222.499 167.708 236.041 197.083Z" fill="#FF2116"/>
<path d="M66 9H343.067C358.052 9 372.434 14.9008 383.101 25.4248L474.033 115.141C484.889 125.851 491 140.466 491 155.717V549C491 580.48 465.48 606 434 606H66C34.5198 606 9 580.48 9 549V66C9 34.5198 34.5198 9 66 9Z" stroke="#FF2116" stroke-width="18"/>
<path d="M174.59 490.294H150.786V476.583H174.59C178.483 476.583 181.636 475.948 184.048 474.679C186.502 473.367 188.301 471.59 189.443 469.347C190.586 467.062 191.157 464.459 191.157 461.539C191.157 458.704 190.586 456.059 189.443 453.604C188.301 451.15 186.502 449.161 184.048 447.638C181.636 446.114 178.483 445.353 174.59 445.353H156.499V524H139.043V431.578H174.59C181.784 431.578 187.92 432.869 192.998 435.45C198.118 437.989 202.012 441.523 204.678 446.051C207.386 450.536 208.74 455.657 208.74 461.412C208.74 467.379 207.386 472.521 204.678 476.837C202.012 481.153 198.118 484.475 192.998 486.803C187.92 489.13 181.784 490.294 174.59 490.294ZM250.063 524H230.132L230.259 510.289H250.063C255.438 510.289 259.945 509.104 263.584 506.734C267.223 504.322 269.974 500.873 271.836 496.388C273.698 491.86 274.629 486.443 274.629 480.138V475.377C274.629 470.51 274.1 466.215 273.042 462.491C271.984 458.767 270.418 455.636 268.345 453.097C266.313 450.558 263.796 448.632 260.791 447.32C257.786 446.008 254.338 445.353 250.444 445.353H229.751V431.578H250.444C256.623 431.578 262.251 432.615 267.329 434.688C272.45 436.762 276.872 439.745 280.596 443.639C284.362 447.49 287.24 452.102 289.229 457.477C291.26 462.851 292.275 468.86 292.275 475.504V480.138C292.275 486.739 291.26 492.748 289.229 498.165C287.24 503.539 284.362 508.152 280.596 512.003C276.872 515.854 272.428 518.816 267.266 520.89C262.103 522.963 256.369 524 250.063 524ZM239.907 431.578V524H222.451V431.578H239.907ZM324.585 431.578V524H307.129V431.578H324.585ZM361.846 471.505V485.279H320.015V471.505H361.846ZM366.733 431.578V445.353H320.015V431.578H366.733Z" fill="black"/>
</svg>
